<?xml version="1.0" encoding="UTF-8" standalone="no"?>
<svg
   xmlns:dc="http://purl.org/dc/elements/1.1/"
   xmlns:cc="http://creativecommons.org/ns#"
   xmlns:rdf="http://www.w3.org/1999/02/22-rdf-syntax-ns#"
   xmlns:svg="http://www.w3.org/2000/svg"
   xmlns="http://www.w3.org/2000/svg"
   id="svg8"
   version="1.1"
   viewBox="0 0 180 180"
   height="180"
   width="180">
  <defs
     id="defs2">
    <symbol
       style="overflow:visible"
       id="u"
       overflow="visible">
      <path
         d="M 1.8281,-0.10938 C 1.73435,-0.054692 1.63279,-0.019536 1.53122,0 1.43747,0.019531 1.332,0.03125 1.21872,0.03125 c -0.33594,0 -0.60156,-0.085938 -0.79688,-0.26562 -0.1875,-0.1875 -0.28125,-0.44141 -0.28125,-0.76562 0,-0.3125 0.09375,-0.5625 0.28125,-0.75 0.19531,-0.1875 0.46094,-0.28125 0.79688,-0.28125 0.11328,0 0.21875,0.015625 0.3125,0.046875 0.10156,0.023437 0.20312,0.058594 0.29688,0.10938 v 0.40625 C 1.73435,-1.531235 1.6406,-1.578115 1.54685,-1.609355 1.4531,-1.640595 1.35154,-1.65623 1.24997,-1.65623 c -0.17969,0 -0.32031,0.0625 -0.42188,0.1875 -0.10547,0.11719 -0.15625,0.27344 -0.15625,0.46875 0,0.21094 0.050781,0.375 0.15625,0.5 0.10156,0.11719 0.24219,0.17188 0.42188,0.17188 0.10156,0 0.20312,-0.015625 0.29688,-0.046875 0.09376,-0.03125 0.1875,-0.078125 0.28125,-0.14062 z"
         id="path836" />
    </symbol>
    <symbol
       style="overflow:visible"
       id="c"
       overflow="visible">
      <path
         d="M 1.3438,-1.0938 C 1.300831,-1.113331 1.257862,-1.12505 1.2188,-1.12505 1.175831,-1.132862 1.132862,-1.140675 1.0938,-1.140675 c -0.125,0 -0.22656,0.042969 -0.29688,0.125 -0.0625,0.074219 -0.09375,0.18359 -0.09375,0.32812 v 0.6875 H 0.23442 v -1.5 h 0.46875 v 0.25 c 0.0625,-0.09375 0.12891,-0.16016 0.20312,-0.20312 C 0.988321,-1.503956 1.08598,-1.5313 1.20317,-1.5313 h 0.046875 c 0.019531,0 0.050781,0.00781 0.09375,0.015625 z"
         id="path839" />
    </symbol>
    <symbol
       style="overflow:visible"
       id="a"
       overflow="visible">
      <path
         d="m 1.7188,-0.75 v 0.14062 H 0.6094 c 0.007813,0.10547 0.046875,0.1875 0.10938,0.25 0.070312,0.054687 0.17188,0.078125 0.29688,0.078125 0.10156,0 0.20703,-0.015625 0.3125,-0.046875 0.10156,-0.03125 0.21094,-0.070313 0.32812,-0.125 v 0.35938 C 1.53909,-0.050781 1.42581,-0.019531 1.31253,0 1.19534,0.019531 1.08206,0.03125 0.96878,0.03125 c -0.27344,0 -0.48047,-0.066406 -0.625,-0.20312 -0.14844,-0.13281 -0.21875,-0.32812 -0.21875,-0.57812 0,-0.23828 0.070312,-0.42578 0.21875,-0.5625 0.14453,-0.14453 0.34766,-0.21875 0.60938,-0.21875 0.22656,0 0.41016,0.074219 0.54688,0.21875 0.14453,0.13672 0.21875,0.32422 0.21875,0.5625 z M 1.23442,-0.90625 C 1.23442,-1 1.207076,-1.07031 1.156295,-1.125 c -0.054688,-0.0625 -0.125,-0.09375 -0.21875,-0.09375 -0.085938,0 -0.15625,0.027344 -0.21875,0.078125 -0.0625,0.054687 -0.10156,0.13281 -0.10938,0.23438 z"
         id="path842" />
    </symbol>
    <symbol
       style="overflow:visible"
       id="k"
       overflow="visible">
      <path
         d="m 0.90625,-0.67188 c -0.10547,0 -0.18359,0.015625 -0.23438,0.046875 -0.054687,0.03125 -0.078125,0.085938 -0.078125,0.15625 0,0.0625 0.019531,0.10938 0.0625,0.14062 0.039062,0.03125 0.097656,0.046875 0.17188,0.046875 0.09375,0 0.16406,-0.03125 0.21875,-0.09375 0.0625,-0.0625 0.09375,-0.14453 0.09375,-0.25 V -0.671885 Z M 1.625,-0.85938 V 0 H 1.14062 V -0.21875 C 1.07812,-0.125 1.0039,-0.05469 0.92187,-0.01563 0.847651,0.01562 0.7539,0.031245 0.64062,0.031245 c -0.15625,0 -0.28125,-0.039062 -0.375,-0.125 -0.09375,-0.09375 -0.14062,-0.21094 -0.14062,-0.35938 0,-0.17578 0.054688,-0.30078 0.17188,-0.375 0.125,-0.082031 0.3125,-0.125 0.5625,-0.125 H 1.14063 V -1.00001 c 0,-0.070312 -0.03125,-0.125 -0.09375,-0.15625 -0.054687,-0.039062 -0.14062,-0.0625 -0.26562,-0.0625 -0.10547,0 -0.20312,0.011719 -0.29688,0.03125 C 0.398443,-1.164072 0.32032,-1.132822 0.25,-1.09376 v -0.35938 c 0.10156,-0.03125 0.20703,-0.050781 0.3125,-0.0625 0.10156,-0.00781 0.20312,-0.015625 0.29688,-0.015625 0.26953,0 0.46094,0.054688 0.57812,0.15625 0.125,0.10547 0.1875,0.27734 0.1875,0.51562 z"
         id="path845" />
    </symbol>
    <symbol
       style="overflow:visible"
       id="d"
       overflow="visible">
      <path
         d="m 0.75,-1.9219 v 0.42188 h 0.5 v 0.34375 h -0.5 v 0.64062 c 0,0.0625 0.007812,0.10938 0.03125,0.14062 0.03125,0.023438 0.085938,0.03125 0.17188,0.03125 h 0.25 V -3e-5 H 0.79688 C 0.60938,-3e-5 0.47266,-0.035186 0.39063,-0.10941 0.316411,-0.191441 0.28125,-0.32816 0.28125,-0.51566 v -0.64062 h -0.25 v -0.34375 h 0.25 v -0.42188 z"
         id="path848" />
    </symbol>
    <symbol
       style="overflow:visible"
       id="j"
       overflow="visible">
      <path
         d="M 1.25,-1.2812 V -2.07808 H 1.73438 V 2e-5 H 1.25 V -0.21873 C 1.175781,-0.12498 1.09766,-0.05467 1.01562,-0.01561 0.941401,0.01564 0.85156,0.031265 0.75,0.031265 c -0.17969,0 -0.32812,-0.070312 -0.45312,-0.21875 -0.11719,-0.14453 -0.17188,-0.33203 -0.17188,-0.5625 0,-0.22656 0.054688,-0.41406 0.17188,-0.5625 0.125,-0.14453 0.27344,-0.21875 0.45312,-0.21875 0.10156,0 0.19141,0.023438 0.26562,0.0625 0.082031,0.042969 0.16016,0.10547 0.23438,0.1875 z m -0.3125,0.96875 c 0.09375,0 0.16406,-0.035156 0.21875,-0.10938 C 1.21875,-0.492143 1.25,-0.60152 1.25,-0.74995 c 0,-0.13281 -0.03125,-0.23828 -0.09375,-0.3125 -0.054688,-0.082031 -0.125,-0.125 -0.21875,-0.125 -0.10547,0 -0.18359,0.042969 -0.23438,0.125 -0.054687,0.074219 -0.078125,0.17969 -0.078125,0.3125 0,0.14844 0.023438,0.25781 0.078125,0.32812 0.050781,0.074219 0.12891,0.10938 0.23438,0.10938 z"
         id="path851" />
    </symbol>
    <symbol
       style="overflow:visible"
       id="g"
       overflow="visible">
      <path
         d="m 1.0312,-0.3125 c 0.09375,0 0.16406,-0.035156 0.21875,-0.10938 0.0625,-0.070313 0.09375,-0.17969 0.09375,-0.32812 0,-0.13281 -0.03125,-0.23828 -0.09375,-0.3125 -0.054688,-0.082031 -0.125,-0.125 -0.21875,-0.125 -0.10547,0 -0.1875,0.042969 -0.25,0.125 -0.054688,0.074219 -0.078125,0.17969 -0.078125,0.3125 0,0.14844 0.023437,0.25781 0.078125,0.32812 0.0625,0.074219 0.14453,0.10938 0.25,0.10938 z M 0.70308,-1.28125 c 0.070313,-0.082031 0.14453,-0.14453 0.21875,-0.1875 0.082031,-0.039062 0.17578,-0.0625 0.28125,-0.0625 0.1875,0 0.33594,0.074219 0.45312,0.21875 0.11328,0.14844 0.17188,0.33594 0.17188,0.5625 0,0.23047 -0.058594,0.41797 -0.17188,0.5625 -0.11719,0.14844 -0.26562,0.21875 -0.45312,0.21875 -0.10547,0 -0.19922,-0.015625 -0.28125,-0.046875 -0.074219,-0.039062 -0.14844,-0.10938 -0.21875,-0.20312 V 5e-6 H 0.23433 v -2.0781 h 0.46875 z"
         id="path854" />
    </symbol>
    <symbol
       style="overflow:visible"
       id="i"
       overflow="visible">
      <path
         d="M 0.03125,-1.5 H 0.51563 L 0.90625,-0.4844 1.25,-1.5 h 0.48438 l -0.625,1.6406 C 1.04688,0.30466 0.96876,0.42185 0.875,0.48435 0.789062,0.554663 0.67969,0.59373 0.54688,0.59373 H 0.28126 v -0.3125 h 0.14062 c 0.082031,0 0.14062,-0.015625 0.17188,-0.046875 0.039062,-0.023437 0.070312,-0.070313 0.09375,-0.14062 l 0.015625,-0.03125 z"
         id="path857" />
    </symbol>
    <symbol
       style="overflow:visible"
       id="f"
       overflow="visible">
      <path
         d="m 1.6094,-1.25 c 0.0625,-0.09375 0.13281,-0.16016 0.21875,-0.20312 0.082031,-0.050781 0.17578,-0.078125 0.28125,-0.078125 0.16406,0 0.29688,0.054688 0.39062,0.15625 0.09375,0.10547 0.14062,0.26172 0.14062,0.46875 V 5e-6 H 2.15626 v -0.78125 -0.03125 -0.0625 c 0,-0.10156 -0.015625,-0.17578 -0.046875,-0.21875 -0.03125,-0.050781 -0.085937,-0.078125 -0.15625,-0.078125 -0.085937,0 -0.15234,0.039063 -0.20312,0.10938 C 1.695327,-0.988271 1.67189,-0.8789 1.67189,-0.73437 V 1e-5 H 1.18751 v -0.78125 c 0,-0.16406 -0.015625,-0.26953 -0.046875,-0.3125 -0.023437,-0.050781 -0.070313,-0.078125 -0.14062,-0.078125 -0.09375,0 -0.16797,0.042969 -0.21875,0.125 -0.054688,0.074219 -0.078125,0.17969 -0.078125,0.3125 V 1.5e-5 H 0.23439 v -1.5 h 0.46875 v 0.21875 c 0.0625,-0.082031 0.12891,-0.14453 0.20312,-0.1875 0.082031,-0.039062 0.16406,-0.0625 0.25,-0.0625 0.10156,0 0.19141,0.027344 0.26562,0.078125 0.082031,0.054687 0.14453,0.12109 0.1875,0.20312 z"
         id="path860" />
    </symbol>
    <symbol
       style="overflow:visible"
       id="h"
       overflow="visible">
      <path
         d="M 0.23438,-1.5 H 0.70313 V 0 H 0.23438 Z m 0,-0.57812 H 0.70313 V -1.6875 H 0.23438 Z"
         id="path863" />
    </symbol>
    <symbol
       style="overflow:visible"
       id="t"
       overflow="visible">
      <path
         d="M 0.23438,-2.0781 H 0.70313 V 0 H 0.23438 Z"
         id="path866" />
    </symbol>
    <symbol
       style="overflow:visible"
       id="b"
       overflow="visible">
      <path
         d="m 0.9375,-1.1875 c -0.10547,0 -0.1875,0.039062 -0.25,0.10938 -0.054688,0.074219 -0.078125,0.18359 -0.078125,0.32812 0,0.14844 0.023437,0.26172 0.078125,0.34375 0.0625,0.074219 0.14453,0.10938 0.25,0.10938 0.10156,0 0.17969,-0.035156 0.23438,-0.10938 0.0625,-0.082031 0.09375,-0.19531 0.09375,-0.34375 0,-0.14453 -0.03125,-0.25391 -0.09375,-0.32812 C 1.117193,-1.148433 1.03907,-1.1875 0.9375,-1.1875 Z m 0,-0.34375 c 0.25781,0 0.46094,0.074219 0.60938,0.21875 0.14453,0.13672 0.21875,0.32422 0.21875,0.5625 0,0.25 -0.074219,0.44531 -0.21875,0.57812 C 1.39844,-0.03516 1.19532,0.03124 0.9375,0.03124 0.67578,0.03124 0.47266,-0.035166 0.32812,-0.17188 0.1914,-0.30469 0.125,-0.5 0.125,-0.75 c 0,-0.23828 0.066406,-0.42578 0.20312,-0.5625 0.14453,-0.14453 0.34766,-0.21875 0.60938,-0.21875 z"
         id="path869" />
    </symbol>
    <symbol
       style="overflow:visible"
       id="e"
       overflow="visible">
      <path
         d="M 1.7344,-0.90625 V 0 H 1.25002 v -0.70312 c 0,-0.125 -0.00781,-0.20703 -0.015625,-0.25 0,-0.050781 -0.00781,-0.09375 -0.015625,-0.125 -0.023438,-0.03125 -0.046875,-0.050781 -0.078125,-0.0625 -0.03125,-0.019531 -0.070313,-0.03125 -0.10938,-0.03125 -0.10547,0 -0.1875,0.042969 -0.25,0.125 -0.054688,0.074219 -0.078125,0.17969 -0.078125,0.3125 V 1e-5 H 0.23439 v -1.5 h 0.46875 v 0.21875 c 0.070313,-0.082031 0.14844,-0.14453 0.23438,-0.1875 0.082031,-0.039062 0.17188,-0.0625 0.26562,-0.0625 0.17578,0 0.30469,0.054688 0.39062,0.15625 0.09375,0.10547 0.14062,0.26172 0.14062,0.46875 z"
         id="path872" />
    </symbol>
    <symbol
       style="overflow:visible"
       id="s"
       overflow="visible">
      <path
         d="m 1.3906,-1.4531 v 0.375 C 1.29685,-1.128881 1.19529,-1.164037 1.09372,-1.18748 0.99997,-1.207011 0.91013,-1.21873 0.8281,-1.21873 c -0.085937,0 -0.15234,0.015625 -0.20312,0.046875 -0.042969,0.023437 -0.0625,0.054687 -0.0625,0.09375 0,0.042969 0.015625,0.074219 0.046875,0.09375 0.03125,0.023437 0.09375,0.039063 0.1875,0.046875 l 0.078125,0.015625 c 0.25,0.03125 0.41406,0.085937 0.5,0.15625 0.082031,0.0625 0.125,0.17188 0.125,0.32812 0,0.15624 -0.0625,0.27734 -0.1875,0.35938 -0.11719,0.074219 -0.28906,0.10938 -0.51562,0.10938 -0.10547,0 -0.21094,-0.011719 -0.3125,-0.03125 -0.10547,-0.0078125 -0.21094,-0.03125 -0.3125,-0.0625 v -0.35938 c 0.09375,0.054687 0.1875,0.089844 0.28125,0.10938 0.10156,0.023438 0.20703,0.03125 0.3125,0.03125 0.09375,0 0.16016,-0.007812 0.20312,-0.03125 0.050781,-0.03125 0.078125,-0.070312 0.078125,-0.125 0,-0.039062 -0.015625,-0.070312 -0.046875,-0.09375 C 0.96873,-0.550756 0.89842,-0.566381 0.79686,-0.5781 L 0.718735,-0.593725 c -0.21875,-0.019531 -0.37109,-0.066406 -0.45312,-0.14062 -0.085937,-0.070313 -0.125,-0.17969 -0.125,-0.32812 0,-0.15625 0.050781,-0.26953 0.15625,-0.34375 0.11328,-0.082031 0.28125,-0.125 0.5,-0.125 0.09375,0 0.1875,0.011719 0.28125,0.03125 0.10156,0.011719 0.20703,0.027344 0.3125,0.046875 z"
         id="path875" />
    </symbol>
    <symbol
       style="overflow:visible"
       id="r"
       overflow="visible">
      <path
         d="m 1.2188,-2.0781 v 0.3125 H 0.95318 c -0.074219,0 -0.125,0.015625 -0.15625,0.046875 -0.023437,0.023438 -0.03125,0.0625 -0.03125,0.125 v 0.09375 h 0.40625 v 0.34375 H 0.76568 v 1.1562 H 0.29693 v -1.1562 h -0.25 v -0.34375 h 0.25 v -0.09375 c 0,-0.16406 0.039063,-0.28516 0.125,-0.35938 0.09375,-0.082031 0.23438,-0.125 0.42188,-0.125 z"
         id="path878" />
    </symbol>
    <symbol
       style="overflow:visible"
       id="q"
       overflow="visible">
      <path
         d="M 1.7344,-0.90625 V 0 H 1.25002 v -0.6875 c 0,-0.13281 -0.00781,-0.22266 -0.015625,-0.26562 0,-0.050781 -0.00781,-0.09375 -0.015625,-0.125 -0.023438,-0.03125 -0.046875,-0.050781 -0.078125,-0.0625 -0.03125,-0.019531 -0.070313,-0.03125 -0.10938,-0.03125 -0.10547,0 -0.1875,0.042969 -0.25,0.125 -0.054688,0.074219 -0.078125,0.17969 -0.078125,0.3125 V 1e-5 H 0.23439 v -2.0781 h 0.46875 v 0.79688 c 0.070313,-0.082031 0.14844,-0.14453 0.23438,-0.1875 0.082031,-0.039062 0.17188,-0.0625 0.26562,-0.0625 0.17578,0 0.30469,0.054688 0.39062,0.15625 0.09375,0.10547 0.14062,0.26172 0.14062,0.46875 z"
         id="path881" />
    </symbol>
    <symbol
       style="overflow:visible"
       id="p"
       overflow="visible">
      <path
         d="m 0.25,-2 h 0.57812 l 0.71875,1.375 V -2 H 2.03125 V 0 H 1.46875 L 0.73437,-1.375 V 0 H 0.24999 Z"
         id="path884" />
    </symbol>
    <symbol
       style="overflow:visible"
       id="o"
       overflow="visible">
      <path
         d="M 0.21875,-0.57812 V -1.5 H 0.6875 v 0.15625 0.3125 0.23438 0.26562 c 0.007812,0.054688 0.023438,0.089844 0.046875,0.10938 0.019531,0.03125 0.046875,0.058594 0.078125,0.078125 0.03125,0.011719 0.066406,0.015625 0.10938,0.015625 0.09375,0 0.16406,-0.035156 0.21875,-0.10938 0.0625,-0.070312 0.09375,-0.17578 0.09375,-0.3125 V -1.5 H 1.71876 V 0 H 1.23438 V -0.21875 C 1.160161,-0.125 1.08204,-0.05469 1,-0.01563 0.925781,0.01562 0.84375,0.031245 0.75,0.031245 c -0.17969,0 -0.3125,-0.050781 -0.40625,-0.15625 -0.085938,-0.10156 -0.125,-0.25391 -0.125,-0.45312 z"
         id="path887" />
    </symbol>
    <symbol
       style="overflow:visible"
       id="n"
       overflow="visible">
      <path
         d="m 0.25,-2 h 0.85938 c 0.25,0 0.44141,0.058594 0.57812,0.17188 0.13281,0.11719 0.20312,0.27734 0.20312,0.48438 0,0.21094 -0.070313,0.37109 -0.20312,0.48438 -0.13672,0.11719 -0.32812,0.17188 -0.57812,0.17188 H 0.76563 V 2e-5 H 0.25001 Z m 0.51562,0.375 v 0.5625 h 0.28125 c 0.10156,0 0.17969,-0.019531 0.23438,-0.0625 0.050781,-0.050781 0.078125,-0.125 0.078125,-0.21875 0,-0.09375 -0.027344,-0.16016 -0.078125,-0.20312 C 1.226562,-1.597651 1.14844,-1.624995 1.04687,-1.624995 Z"
         id="path890" />
    </symbol>
    <symbol
       style="overflow:visible"
       id="m"
       overflow="visible">
      <path
         d="m 0.23438,-1.5 h 0.46875 v 1.4688 c 0,0.20703 -0.046875,0.36328 -0.14062,0.46875 C 0.46876,0.53911 0.32813,0.5938 0.14063,0.5938 H -0.09375 V 0.2813 h 0.078125 c 0.09375,0 0.15625,-0.023438 0.1875,-0.0625 0.039063,-0.042969 0.0625,-0.125 0.0625,-0.25 z m 0,-0.57812 H 0.70313 V -1.6875 H 0.23438 Z"
         id="path893" />
    </symbol>
    <symbol
       style="overflow:visible"
       id="l"
       overflow="visible">
      <path
         d="m 1.4375,-1.4531 v 0.39062 C 1.375,-1.101542 1.30469,-1.132792 1.23438,-1.15623 1.17188,-1.175761 1.10157,-1.18748 1.03126,-1.18748 c -0.125,0 -0.23047,0.042969 -0.3125,0.125 -0.074219,0.074219 -0.10938,0.17969 -0.10938,0.3125 0,0.14844 0.035156,0.26172 0.10938,0.34375 0.082031,0.074219 0.1875,0.10938 0.3125,0.10938 0.082031,0 0.15625,-0.007813 0.21875,-0.03125 0.070312,-0.03125 0.13281,-0.066406 0.1875,-0.10938 v 0.39062 C 1.363291,-0.01561 1.28517,0.003921 1.20313,0.01564 1.128911,0.0234525 1.05469,0.031265 0.98438,0.031265 c -0.27344,0 -0.48438,-0.066406 -0.64062,-0.20312 -0.14844,-0.13281 -0.21875,-0.32812 -0.21875,-0.57812 0,-0.23828 0.070312,-0.42578 0.21875,-0.5625 0.15625,-0.14453 0.36719,-0.21875 0.64062,-0.21875 0.070313,0 0.14453,0.011719 0.21875,0.03125 0.082031,0.011719 0.16016,0.027344 0.23438,0.046875 z"
         id="path896" />
    </symbol>
  </defs>
  <metadata
     id="metadata5">
    <rdf:RDF>
      <cc:Work
         rdf:about="">
        <dc:format>image/svg+xml</dc:format>
        <dc:type
           rdf:resource="http://purl.org/dc/dcmitype/StillImage" />
        <dc:title></dc:title>
      </cc:Work>
    </rdf:RDF>
  </metadata>
  <g
     transform="translate(0,-20)"
     style="display:inline"
     id="layer6">
    <path
       id="rect1385"
       transform="translate(0,20)"
       d="M 124.37695,1.1953125 V 6.5175781 8.4003906 H 122.5 97.072266 c -2.860301,0 -4.972657,2.0606314 -4.972657,4.5371094 a 2.1002104,2.1002104 0 0 1 -4.199218,0 c 0,-2.476476 -2.112371,-4.5371094 -4.972657,-4.5371094 H 9.171875 c -2.8602906,0 -4.9726562,2.0606334 -4.9726562,4.5371094 v 151.72266 c -2e-7,2.47648 2.1123648,4.53711 4.9726562,4.53711 h 73.755859 c -0.248561,0 -0.231059,-0.004 0.06055,-0.004 a 2.1002104,2.1002104 0 0 1 0.01758,0 c 1.922339,0.0155 3.666679,0.65459 5.119141,1.68164 h 3.75 c 1.452389,-1.02712 3.196583,-1.66629 5.119141,-1.68164 a 2.1002104,2.1002104 0 0 1 0.03516,0 c 0.267816,0.002 0.281163,0.004 0.04297,0.004 h 73.755854 c 2.86036,0 4.97266,-2.06063 4.97266,-4.53711 V 12.9375 c 0,-2.476479 -2.11235,-4.5371094 -4.97266,-4.5371094 h -14.92187 -7.04687 -1.66797 V 6.5175781 1.1953125 Z M 88.921875,6.5175781 C 89.306513,6.8560169 89.672369,7.2149146 90,7.6074219 90.327631,7.2149145 90.693487,6.856017 91.078125,6.5175781 Z"
       style="fill:#ffffff;fill-opacity:1;stroke:none;stroke-width:3.79999995;stroke-linecap:round;stroke-linejoin:round;stroke-miterlimit:4;stroke-dasharray:none;stroke-dashoffset:0;stroke-opacity:1;paint-order:fill markers stroke" />
    <path
       id="path1136"
       transform="translate(0,20)"
       d="m 124.5,0 a 2.0002,2.0002 0 0 0 -2,2 V 4.1992188 H 97.072266 C 94.195458,4.1992188 91.695417,5.5762819 90,7.6074219 88.304583,5.5762829 85.804537,4.1992188 82.927734,4.1992188 H 9.171875 C 4.195942,4.1992188 0,8.059282 0,12.9375 v 151.72266 c 0,4.87822 4.1959428,8.73632 9.171875,8.73632 h 73.755859 c 0.215584,0 0.127295,-0.003 0.04492,-0.004 0.0014,1e-5 0.0025,-1e-5 0.0039,0 2.835809,0.0248 4.923829,2.07517 4.923829,4.53711 a 2.1002104,2.1002104 0 0 0 4.199218,0 c 0,-2.46065 2.086656,-4.5085 4.919922,-4.53516 -0.04206,0.001 -0.135876,0.002 0.05273,0.002 h 73.755857 c 4.97596,0 9.17188,-3.85811 9.17188,-8.73632 V 12.9375 c 0,-4.878215 -4.19592,-8.7382812 -9.17188,-8.7382812 H 148.85938 V 2 a 2.0002,2.0002 0 0 0 -2,-2 z m 2,4 h 18.35938 v 23.660156 l -7.76563,-7.767578 a 2.0002,2.0002 0 0 0 -2.82813,0 L 126.5,27.660156 Z M 9.171875,8.4003906 h 73.755859 c 2.860286,0 4.972657,2.0606334 4.972657,4.5371094 a 2.1002104,2.1002104 0 0 0 4.199218,0 c 0,-2.476478 2.112356,-4.5371094 4.972657,-4.5371094 H 122.5 V 32.488281 a 2.0002,2.0002 0 0 0 3.41406,1.414063 l 9.76563,-9.767578 9.76562,9.767578 a 2.0002,2.0002 0 0 0 3.41407,-1.414063 V 8.4003906 h 21.96874 c 2.86031,0 4.97266,2.0606304 4.97266,4.5371094 v 151.72266 c 0,2.47648 -2.11234,4.53711 -4.97266,4.53711 H 97.072266 c 0.238198,0 0.224846,-0.002 -0.04297,-0.004 a 2.1002104,2.1002104 0 0 0 -0.03516,0 c -2.84377,0.0227 -5.313841,1.38836 -6.994141,3.39844 -1.680294,-2.00977 -4.150694,-3.37548 -6.994141,-3.39844 a 2.1002104,2.1002104 0 0 0 -0.01758,0 c -0.291594,0 -0.309111,0.004 -0.06055,0.004 H 9.171875 c -2.8602914,0 -4.9726563,-2.06063 -4.9726562,-4.53711 V 12.9375 c 0,-2.476476 2.1123656,-4.5371094 4.9726562,-4.5371094 z"
       style="color:#000000;font-style:normal;font-variant:normal;font-weight:normal;font-stretch:normal;font-size:medium;line-height:normal;font-family:sans-serif;font-variant-ligatures:normal;font-variant-position:normal;font-variant-caps:normal;font-variant-numeric:normal;font-variant-alternates:normal;font-feature-settings:normal;text-indent:0;text-align:start;text-decoration:none;text-decoration-line:none;text-decoration-style:solid;text-decoration-color:#000000;letter-spacing:normal;word-spacing:normal;text-transform:none;writing-mode:lr-tb;direction:ltr;text-orientation:mixed;dominant-baseline:auto;baseline-shift:baseline;text-anchor:start;white-space:normal;shape-padding:0;clip-rule:nonzero;display:inline;overflow:visible;visibility:visible;opacity:1;isolation:auto;mix-blend-mode:normal;color-interpolation:sRGB;color-interpolation-filters:linearRGB;solid-color:#000000;solid-opacity:1;vector-effect:none;fill:#000000;fill-opacity:1;fill-rule:nonzero;stroke:none;stroke-width:4.20000076;stroke-linecap:round;stroke-linejoin:round;stroke-miterlimit:4;stroke-dasharray:none;stroke-dashoffset:0;stroke-opacity:1;paint-order:fill markers stroke;color-rendering:auto;image-rendering:auto;shape-rendering:auto;text-rendering:auto;enable-background:accumulate" />
  </g>
  <g
     transform="translate(0,-20)"
     style="display:inline"
     id="layer3">
    <path
       id="path1343"
       transform="translate(0,20)"
       d="m 61.564453,94.115234 c -0.942505,0 -1.901493,0.138709 -2.878906,0.417969 -0.977413,0.27926 -1.920527,0.822127 -2.828125,1.625 -0.872689,0.80288 -1.657317,1.954052 -2.355469,3.455078 -0.698152,1.466109 -1.25689,3.421699 -1.675781,5.865239 -0.383983,2.40862 -0.576172,5.41037 -0.576172,9.00586 0,3.03696 0.138708,5.6028 0.417969,7.69726 0.27926,2.05955 0.681464,3.73381 1.205078,5.02539 0.523614,1.25667 1.133879,2.21761 1.832031,2.88086 0.733059,0.66324 1.535513,1.11698 2.408203,1.36133 0.87269,0.24435 1.815805,0.36523 2.828125,0.36523 1.291582,0 2.426884,-0.17436 3.404297,-0.52343 0.977413,-0.34908 1.72834,-0.80281 2.251953,-1.36133 0.558522,-0.59343 0.835938,-1.22152 0.835938,-1.88477 0,-0.4538 -0.06935,-0.90753 -0.208985,-1.36133 -0.13963,-0.4538 -0.296165,-0.85404 -0.470703,-1.20312 -0.453799,0.38399 -1.117545,0.75053 -1.990234,1.09961 -0.87269,0.34908 -1.813851,0.52344 -2.826172,0.52344 -0.767967,0 -1.485193,-0.17436 -2.148438,-0.52344 -0.628336,-0.34908 -1.169248,-0.97912 -1.623046,-1.88672 -0.453799,-0.9425 -0.820349,-2.25022 -1.09961,-3.92578 -0.244353,-1.67557 -0.365234,-3.84117 -0.365234,-6.49414 0,-2.7577 0.120881,-5.07788 0.365234,-6.96289 0.279261,-1.88501 0.627984,-3.42056 1.046875,-4.60743 0.418891,-1.18685 0.908275,-2.09432 1.466797,-2.722651 0.593429,-0.663247 1.203694,-1.1011 1.832031,-1.310547 0.663244,-0.244353 1.326991,-0.365234 1.990235,-0.365234 0.523614,0 1.012998,0.08718 1.466797,0.261718 0.453799,0.139627 0.838175,0.313991 1.152343,0.523438 0.349076,0.17454 0.610619,0.331076 0.785157,0.470703 0.174538,-0.314167 0.331072,-0.698544 0.470703,-1.152344 0.13963,-0.453793 0.208984,-0.925356 0.208984,-1.414062 0,-0.4538 -0.138708,-0.889701 -0.417969,-1.308594 -0.27926,-0.4538 -0.786472,-0.82035 -1.519531,-1.099609 -0.698152,-0.314167 -1.692794,-0.470704 -2.984375,-0.470704 z m 34.816406,0 c -2.268993,0 -4.15327,0.592437 -5.654297,1.779297 -1.466119,1.151947 -2.565768,3.089707 -3.298828,5.812499 -0.733059,2.72279 -1.099609,6.40612 -1.099609,11.04883 0,3.77002 0.174362,6.89461 0.523437,9.37305 0.349077,2.44353 0.889988,4.38128 1.623047,5.8125 0.767967,1.43121 1.744782,2.44368 2.931641,3.03711 1.221766,0.55852 2.687966,0.83593 4.398438,0.83593 2.303901,0 4.172301,-0.59244 5.603512,-1.77929 1.46612,-1.22177 2.53012,-3.22887 3.19336,-6.02149 0.69816,-2.7926 1.04688,-6.59681 1.04688,-11.41406 0,-3.56057 -0.17436,-6.5108 -0.52344,-8.84961 -0.31417,-2.37372 -0.83725,-4.25995 -1.57031,-5.65625 -0.73306,-1.431213 -1.69401,-2.441723 -2.88086,-3.035156 -1.186863,-0.628334 -2.617406,-0.94336 -4.292971,-0.94336 z m 57.445311,0 c -2.89733,0 -5.13033,0.697444 -6.70117,2.09375 -1.53593,1.3963 -2.30469,3.195352 -2.30469,5.394536 0,1.25667 0.24372,2.4772 0.73242,3.66406 0.52362,1.15194 1.37956,2.46161 2.56641,3.92773 l 5.23633,6.12696 c 1.15195,1.32649 1.93657,2.49549 2.35547,3.50781 0.45379,1.01232 0.68164,2.11197 0.68164,3.29883 0,1.60575 -0.40221,2.89758 -1.20508,3.875 -0.76797,0.97741 -2.07568,1.46484 -3.92578,1.46484 -1.25667,0 -2.34045,-0.17436 -3.24805,-0.52344 -0.87268,-0.34907 -1.58796,-0.78498 -2.14648,-1.30859 -0.38398,0.4538 -0.66335,0.97688 -0.83789,1.57031 -0.17454,0.55852 -0.26172,1.0479 -0.26172,1.4668 0,0.73306 0.5409,1.44833 1.62304,2.14648 1.11705,0.66324 2.88044,0.99414 5.28907,0.99414 2.37371,0 4.22429,-0.45373 5.55078,-1.36133 1.36139,-0.9076 2.32039,-2.1103 2.87891,-3.61132 0.59343,-1.50103 0.89062,-3.12572 0.89062,-4.8711 0,-1.64065 -0.24372,-3.12272 -0.73242,-4.44922 -0.48871,-1.32648 -1.41399,-2.79269 -2.77539,-4.39843 l -5.65625,-6.44141 c -0.76797,-0.9425 -1.37823,-1.79649 -1.83203,-2.56445 -0.41889,-0.80288 -0.62891,-1.67664 -0.62891,-2.61914 0,-1.15196 0.45373,-2.041585 1.36133,-2.669925 0.9425,-0.628333 2.20064,-0.943359 3.77148,-0.943359 1.22177,0 2.28576,0.158489 3.19336,0.472656 0.94251,0.27926 1.58843,0.540803 1.9375,0.785156 0.34908,-0.38398 0.61062,-0.786185 0.78516,-1.205078 0.17454,-0.4538 0.26172,-0.856005 0.26172,-1.205078 0,-0.73306 -0.52309,-1.343325 -1.57032,-1.832031 -1.04723,-0.523614 -2.81062,-0.785157 -5.28906,-0.785157 z M 23.292969,94.638672 c -1.396304,0 -2.390946,0.0178 -2.984375,0.05273 -0.593429,0.03491 -0.959979,0.13992 -1.09961,0.314453 C 19.069354,95.180399 19,95.459763 19,95.84375 v 35.44727 h 12.462891 c 0.244353,0 0.434588,-0.0515 0.574218,-0.15625 0.174538,-0.10472 0.261719,-0.33257 0.261719,-0.68165 v -3.14062 h -9.005859 z m 13.115234,0 c -0.418891,0 -0.680433,0.140662 -0.785156,0.419922 l -0.105469,0.417968 v 35.814458 h 12.410156 c 0.279261,0 0.47145,-0.0694 0.576172,-0.20899 0.104724,-0.13963 0.174078,-0.47053 0.208985,-0.99414 0.03491,-0.55853 0.05273,-1.43229 0.05273,-2.61914 H 39.759766 V 113.2793 h 7.121093 c 0.383984,0 0.609873,-0.24372 0.679688,-0.73242 0.06981,-0.48871 0.105469,-1.53684 0.105469,-3.14258 h -7.90625 V 98.460938 h 8.429687 c 0.244353,-10e-7 0.418715,-0.08718 0.523438,-0.261719 0.104724,-0.17454 0.174077,-0.523262 0.208984,-1.046875 0.03491,-0.523614 0.05273,-1.361719 0.05273,-2.513672 z m 31.863281,0 c -0.593429,0 -0.890625,0.279364 -0.890625,0.83789 v 3.142579 h 7.121094 v 32.671879 c 1.396304,0 2.390946,-0.0159 2.984375,-0.0508 0.593429,-0.0349 0.942152,-0.10621 1.046875,-0.21093 0.13963,-0.10472 0.210938,-0.29691 0.210938,-0.57618 V 98.619141 h 6.439453 c 0.314168,0 0.54201,-0.05348 0.68164,-0.158203 0.13963,-0.139634 0.208985,-0.365521 0.208985,-0.679688 v -3.142578 z m 42.126956,0 c -0.4189,0 -0.68239,0.140662 -0.78711,0.419922 l -0.10352,0.417968 v 35.814458 c 1.39631,0 2.39095,-0.0159 2.98438,-0.0508 0.59342,-0.0349 0.94215,-0.10621 1.04687,-0.21093 0.13963,-0.10472 0.20899,-0.29691 0.20899,-0.57618 v -14.03124 h 1.88476 c 0.33168,0 0.65996,-0.0138 0.98242,-0.0391 0.43283,0.532 0.92556,1.35753 1.48047,2.5 0.62834,1.18686 1.20295,2.8096 1.72657,4.86914 0.55852,2.02464 0.92507,4.53701 1.09961,7.53907 0.48869,0.0349 0.94243,0.0527 1.36132,0.0527 0.4538,0.0349 0.83818,0.0527 1.15235,0.0527 1.01232,0 1.62258,-0.0693 1.83203,-0.20898 0.20944,-0.17454 0.31445,-0.4539 0.31445,-0.83789 -0.17454,-2.93223 -0.59262,-5.44656 -1.25586,-7.54102 -0.66324,-2.09445 -1.37852,-3.80437 -2.14648,-5.13086 -0.58096,-1.02987 -1.10336,-1.84861 -1.56446,-2.45898 0.62122,-0.35945 1.19922,-0.78906 1.72071,-1.31055 0.9076,-0.87269 1.60504,-2.02581 2.09375,-3.45703 0.52361,-1.46611 0.78711,-3.28104 0.78711,-5.44531 0,-2.44353 -0.35068,-4.41499 -1.04883,-5.916016 -0.66324,-1.535934 -1.70941,-2.653409 -3.14063,-3.351563 -1.43121,-0.73306 -3.24613,-1.099609 -5.44531,-1.099609 h -2.67187 z m 19.48242,0 c -0.41889,0 -0.68044,0.140662 -0.78516,0.419922 l -0.10547,0.417968 v 35.814458 h 12.41016 c 0.27926,0 0.47145,-0.0694 0.57617,-0.20899 0.1047,-0.13963 0.17405,-0.47053 0.20899,-0.99414 0.0349,-0.55853 0.0527,-1.43229 0.0527,-2.61914 h -9.00586 V 113.2793 h 7.1211 c 0.38398,0 0.60986,-0.24372 0.67968,-0.73242 0.0698,-0.48871 0.10547,-1.53684 0.10547,-3.14258 h -7.90625 V 98.460938 h 8.42969 c 0.24435,-10e-7 0.41871,-0.08718 0.52344,-0.261719 0.10469,-0.17454 0.17405,-0.523262 0.20898,-1.046875 0.0349,-0.523614 0.0527,-1.361719 0.0527,-2.513672 z m -16.13281,3.71875 h 2.61914 c 1.04723,0 1.86751,0.261543 2.46093,0.785156 0.62834,0.488707 1.06425,1.221802 1.3086,2.199222 0.24435,0.97741 0.36719,2.12859 0.36719,3.45508 0,1.8501 -0.17437,3.35195 -0.52344,4.5039 -0.34907,1.11705 -0.85629,1.93733 -1.51953,2.46094 -0.62834,0.48871 -1.4308,0.73242 -2.40821,0.73242 h -2.30468 z m -17.470706,0.15625 c 1.256673,0 2.215661,0.453735 2.878906,1.361328 0.698149,0.9076 1.18754,2.40945 1.4668,4.50391 0.27926,2.05954 0.41797,4.83345 0.41797,8.32421 0,3.52567 -0.17436,6.38872 -0.52344,8.5879 -0.31417,2.16427 -0.837254,3.73547 -1.570314,4.71289 -0.698152,0.9425 -1.692795,1.41406 -2.984375,1.41406 -1.221766,0 -2.200535,-0.45568 -2.933594,-1.36328 -0.698152,-0.94251 -1.20341,-2.40675 -1.517578,-4.39649 -0.279262,-1.98973 -0.419922,-4.60906 -0.419922,-7.85547 0,-3.77002 0.176314,-6.77177 0.525391,-9.00585 0.349076,-2.23409 0.90586,-3.839 1.673828,-4.816411 0.767967,-0.977414 1.764562,-1.466797 2.986328,-1.466797 z"
       style="font-style:normal;font-variant:normal;font-weight:normal;font-stretch:normal;font-size:52.36139297px;line-height:1.39999998;font-family:'Yanone Kaffeesatz';-inkscape-font-specification:'Yanone Kaffeesatz, Normal';font-variant-ligatures:normal;font-variant-caps:normal;font-variant-numeric:normal;font-feature-settings:normal;text-align:end;letter-spacing:0px;word-spacing:0px;writing-mode:lr-tb;text-anchor:end;fill:#000000;fill-opacity:1;stroke:none;stroke-width:1" />
    <path
       transform="translate(0,20)"
       id="path1320"
       d="m 96.380859,41.416016 c -2.268991,0 -4.153272,0.59244 -5.654297,1.779296 -1.466118,1.15195 -2.565769,3.08971 -3.298828,5.8125 -0.733058,2.72279 -1.099609,6.406123 -1.099609,11.048829 0,3.770016 0.174362,6.892657 0.523437,9.371093 0.349076,2.44353 0.889989,4.38129 1.623047,5.8125 0.767967,1.43121 1.744784,2.443681 2.931641,3.03711 1.221765,0.55852 2.687967,0.83789 4.398438,0.83789 2.303898,0 4.172303,-0.592439 5.603512,-1.779296 1.46612,-1.221765 2.53012,-3.22888 3.19336,-6.021485 0.69816,-2.792605 1.04688,-6.598772 1.04688,-11.416015 0,-3.560571 -0.17436,-6.510803 -0.52344,-8.84961 -0.31417,-2.373714 -0.83725,-4.257994 -1.57031,-5.654297 -0.73306,-1.43121 -1.69206,-2.443681 -2.87891,-3.037109 -1.186857,-0.628336 -2.619357,-0.941406 -4.294921,-0.941406 z m 57.445311,0 c -2.89732,0 -5.13033,0.697448 -6.70117,2.09375 -1.53593,1.396302 -2.30469,3.193402 -2.30469,5.392578 0,1.256672 0.24372,2.479158 0.73242,3.666015 0.52362,1.15195 1.37956,2.461617 2.56641,3.927735 l 5.23633,6.125 c 1.15195,1.326487 1.93657,2.495493 2.35547,3.507812 0.45379,1.01232 0.68164,2.111972 0.68164,3.298828 0,1.605748 -0.40221,2.897589 -1.20508,3.875 -0.76797,0.977412 -2.07568,1.466797 -3.92578,1.466797 -1.25667,0 -2.34045,-0.174361 -3.24805,-0.523437 -0.87268,-0.349076 -1.58796,-0.784981 -2.14648,-1.308594 -0.38399,0.453798 -0.66335,0.976884 -0.83789,1.570312 -0.17454,0.558522 -0.26172,1.047907 -0.26172,1.466797 0,0.733059 0.54091,1.448333 1.62304,2.146485 1.11705,0.663243 2.88045,0.99414 5.28907,0.99414 2.37372,0 4.22429,-0.453731 5.55078,-1.361328 1.36139,-0.907596 2.32038,-2.112256 2.87891,-3.613281 C 160.7028,72.6396 161,71.016862 161,69.271484 c 0,-1.640655 -0.24372,-3.124684 -0.73242,-4.451172 -0.4887,-1.326487 -1.41399,-2.79269 -2.77539,-4.398437 l -5.65625,-6.439453 c -0.76797,-0.942504 -1.37823,-1.79844 -1.83203,-2.566406 -0.41889,-0.802874 -0.62891,-1.674683 -0.62891,-2.617188 0,-1.151949 0.45373,-2.043539 1.36133,-2.671875 0.9425,-0.628336 2.20064,-0.941406 3.77148,-0.941406 1.22176,0 2.28576,0.156535 3.19336,0.470703 0.9425,0.279261 1.58842,0.540804 1.9375,0.785156 0.34908,-0.383983 0.61062,-0.784234 0.78516,-1.203125 0.17453,-0.453798 0.26172,-0.856003 0.26172,-1.205078 0,-0.733059 -0.52309,-1.343326 -1.57032,-1.832031 -1.04722,-0.523613 -2.81062,-0.785156 -5.28906,-0.785156 z M 30.423828,41.939453 c -0.244353,0 -0.454368,0.05153 -0.628906,0.15625 -0.174538,0.06981 -0.261719,0.297658 -0.261719,0.681641 v 35.814453 c 1.326487,0 2.287431,-0.01783 2.880859,-0.05273 0.593429,-0.03491 0.95998,-0.104261 1.09961,-0.208984 0.174538,-0.104723 0.261719,-0.296911 0.261719,-0.576172 L 33.669922,65.605469 c 0,-0.907596 -0.0337,-1.920068 -0.103516,-3.03711 -0.03491,-1.117042 -0.106215,-2.232567 -0.210937,-3.349609 -0.06982,-1.151949 -0.156996,-2.251601 -0.261719,-3.298828 -0.06981,-1.082135 -0.139169,-2.025251 -0.208984,-2.828125 -0.03491,-0.837781 -0.08644,-1.501528 -0.15625,-1.990235 l -0.05273,-0.732421 0.04492,-0.07031 c 0.04109,0.150407 0.0686,0.224555 0.111328,0.384766 0.27926,1.047226 0.576457,2.164706 0.890625,3.351562 0.349076,1.186858 0.679973,2.355863 0.994141,3.507813 0.349075,1.117042 0.628445,2.093859 0.837891,2.93164 0.244353,0.837782 0.418714,1.396521 0.523437,1.675782 l 2.722656,8.376953 h 1.833985 c 0.27926,0 0.471449,-0.138709 0.576172,-0.417969 l 2.77539,-7.958984 c 0.104723,-0.314168 0.279085,-0.872908 0.523438,-1.675782 0.244353,-0.837781 0.523722,-1.814598 0.83789,-2.93164 0.314168,-1.117042 0.627238,-2.270175 0.941406,-3.457031 0.349076,-1.186858 0.664099,-2.286509 0.94336,-3.298829 0.05805,-0.210423 0.0871,-0.317886 0.140625,-0.511718 l -0.03711,0.564453 c -0.03491,0.523613 -0.08644,1.223014 -0.15625,2.095703 -0.06982,0.872689 -0.13917,1.867333 -0.208985,2.984375 -0.06981,1.082134 -0.156996,2.215486 -0.261719,3.402344 -0.06981,1.186856 -0.141122,2.339989 -0.210937,3.457031 -0.03491,1.117042 -0.05078,2.129513 -0.05078,3.037109 L 46.236331,78.5918 c 1.466117,0 2.496415,-0.01783 3.089844,-0.05273 0.593428,-0.03491 0.942152,-0.104261 1.046875,-0.208984 0.139631,-0.104723 0.210937,-0.296911 0.210937,-0.576172 V 41.939453 h -0.158203 -0.83789 -2.460938 c -0.27926,0 -0.471449,0.08718 -0.576172,0.261719 -0.06981,0.13963 -0.156996,0.331819 -0.261719,0.576172 l -4.607421,15.130859 c -0.174538,0.523614 -0.348901,1.10018 -0.523438,1.728516 l -0.523437,1.884765 c -0.13963,0.593429 -0.262465,1.100641 -0.367188,1.519532 l -0.103516,0.576172 -0.210937,-0.576172 c -0.104723,-0.418891 -0.243431,-0.926103 -0.417969,-1.519532 -0.13963,-0.628336 -0.313992,-1.274256 -0.523437,-1.9375 -0.174538,-0.663243 -0.3489,-1.255683 -0.523438,-1.779296 L 33.513672,41.939453 Z m 25.107422,0 c -0.418891,0 -0.680434,0.138708 -0.785156,0.417969 l -0.103516,0.419922 v 35.814453 h 12.408203 c 0.279261,0 0.471449,-0.06935 0.576172,-0.208985 0.104724,-0.13963 0.176031,-0.47248 0.210938,-0.996093 0.03491,-0.558522 0.05078,-1.430331 0.05078,-2.617188 h -9.00586 V 60.580078 h 7.121094 c 0.383983,0 0.611826,-0.245669 0.681641,-0.734375 0.06982,-0.488706 0.103515,-1.534878 0.103515,-3.140625 h -7.90625 V 45.761719 H 67.3125 c 0.244353,0 0.420668,-0.08718 0.525391,-0.261719 0.104723,-0.174538 0.174077,-0.523262 0.208984,-1.046875 0.03491,-0.523613 0.05273,-1.361723 0.05273,-2.513672 z m 25.550781,0 c -1.43121,0 -2.44368,0.0337 -3.037109,0.103516 -0.593429,0.03491 -0.959979,0.193395 -1.09961,0.472656 -0.104722,0.244353 -0.15625,0.698085 -0.15625,1.361328 v 25.132813 c 10e-7,1.361395 -0.06935,2.512574 -0.208984,3.455078 -0.13963,0.907596 -0.454653,1.606998 -0.943359,2.095703 -0.488706,0.488706 -1.239635,0.732422 -2.251953,0.732422 -0.87269,0 -1.692972,-0.174362 -2.460938,-0.523438 -0.767967,-0.383983 -1.396059,-0.786187 -1.884766,-1.205078 -0.104722,0.244353 -0.243431,0.577203 -0.417968,0.996094 -0.139631,0.383983 -0.208985,0.855541 -0.208985,1.414062 0,0.523614 0.156536,1.028873 0.470703,1.517579 0.349077,0.453798 0.925642,0.820348 1.728516,1.099609 0.802873,0.314168 1.902526,0.470703 3.298828,0.470703 1.466118,0 2.65295,-0.225889 3.560547,-0.679688 0.942504,-0.453797 1.675606,-1.081891 2.199219,-1.884765 0.523613,-0.837781 0.88821,-1.816552 1.097656,-2.933594 0.209445,-1.117042 0.314453,-2.319749 0.314453,-3.611328 z m 29.316409,0 c -0.4189,0 -0.68239,0.138708 -0.78711,0.417969 l -0.10352,0.419922 v 35.814453 c 1.39631,0 2.39095,-0.01783 2.98438,-0.05273 0.59342,-0.03491 0.94215,-0.104261 1.04687,-0.208984 0.13963,-0.104723 0.20899,-0.296911 0.20899,-0.576172 V 63.720703 h 1.88672 c 0.33167,0 0.658,-0.01179 0.98046,-0.03711 0.43277,0.532015 0.92566,1.355789 1.48047,2.498047 0.62834,1.186857 1.20295,2.809594 1.72657,4.86914 0.55852,2.024638 0.92506,4.538965 1.09961,7.541016 0.4887,0.03491 0.94244,0.05273 1.36132,0.05273 0.4538,0.03491 0.83818,0.05273 1.15235,0.05273 1.01232,0 1.62258,-0.07131 1.83203,-0.210938 0.20944,-0.174538 0.31445,-0.453908 0.31445,-0.83789 -0.17454,-2.932236 -0.59261,-5.44461 -1.25586,-7.539063 -0.66324,-2.094454 -1.37852,-3.804372 -2.14648,-5.130859 -0.58096,-1.029871 -1.10336,-1.848618 -1.56446,-2.458985 0.62141,-0.359498 1.19908,-0.790869 1.72071,-1.3125 0.9076,-0.872689 1.60504,-2.023868 2.09375,-3.455078 0.52361,-1.466117 0.78711,-3.281044 0.78711,-5.445312 0,-2.44353 -0.35068,-4.416944 -1.04883,-5.917969 -0.66325,-1.535933 -1.70942,-2.651458 -3.14063,-3.34961 -1.43121,-0.733058 -3.24614,-1.099609 -5.44531,-1.099609 h -2.67187 z m 19.48242,0 c -0.41889,0 -0.68044,0.138708 -0.78516,0.417969 l -0.10547,0.419922 v 35.814453 h 12.41016 c 0.27927,0 0.47145,-0.06935 0.57617,-0.208985 0.1047,-0.13963 0.17405,-0.47248 0.20899,-0.996093 0.0349,-0.558522 0.0527,-1.430331 0.0527,-2.617188 h -9.00586 V 60.580078 h 7.1211 c 0.38398,0 0.60986,-0.245669 0.67968,-0.734375 0.0698,-0.488706 0.10547,-1.534878 0.10547,-3.140625 h -7.90625 V 45.761719 h 8.42969 c 0.24435,0 0.41872,-0.08718 0.52344,-0.261719 0.1047,-0.174538 0.17405,-0.523262 0.20898,-1.046875 0.0349,-0.523613 0.0527,-1.361723 0.0527,-2.513672 z m -16.13281,3.716797 h 2.61914 c 1.04722,0 1.86751,0.261543 2.46093,0.785156 0.62834,0.488706 1.06425,1.221808 1.3086,2.199219 0.24435,0.977412 0.36719,2.130544 0.36719,3.457031 0,1.850101 -0.17436,3.350004 -0.52344,4.501953 -0.34907,1.117042 -0.85629,1.937325 -1.51953,2.460938 -0.62834,0.488706 -1.43079,0.734375 -2.40821,0.734375 h -2.30468 z m -17.470706,0.158203 c 1.256672,0 2.215663,0.453732 2.878906,1.361328 0.698154,0.907597 1.18754,2.4075 1.4668,4.501953 0.27926,2.059546 0.41797,4.835416 0.41797,8.326172 0,3.525664 -0.17436,6.386761 -0.52344,8.585938 -0.31417,2.164268 -0.837257,3.735479 -1.570314,4.71289 -0.698152,0.942504 -1.692796,1.414063 -2.984375,1.414063 -1.221765,0 -2.200535,-0.453732 -2.933594,-1.361328 -0.698151,-0.942505 -1.20341,-2.408707 -1.517578,-4.398438 -0.279261,-1.98973 -0.419922,-4.607112 -0.419922,-7.853515 0,-3.770016 0.176315,-6.771776 0.525391,-9.00586 0.349075,-2.234084 0.905862,-3.840948 1.673828,-4.818359 0.767966,-0.977412 1.764563,-1.464844 2.986328,-1.464844 z"
       style="font-style:normal;font-variant:normal;font-weight:normal;font-stretch:normal;font-size:52.36133957px;line-height:1.39999998;font-family:'Yanone Kaffeesatz';-inkscape-font-specification:'Yanone Kaffeesatz, Normal';font-variant-ligatures:normal;font-variant-caps:normal;font-variant-numeric:normal;font-feature-settings:normal;text-align:end;letter-spacing:0px;word-spacing:0px;writing-mode:lr-tb;text-anchor:end;fill:#000000;fill-opacity:1;stroke:none;stroke-width:1" />
    <path
       id="path1369"
       transform="translate(0,20)"
       d="m 132.66016,143.53125 c -0.55111,0 -1.11275,0.0783 -1.68164,0.23828 -0.55111,0.16 -1.06688,0.4905 -1.54688,0.98828 -0.46223,0.48 -0.8347,1.19821 -1.11914,2.15821 -0.28445,0.96 -0.42578,2.24179 -0.42578,3.84179 0,1.40445 0.0783,2.54101 0.23828,3.41211 0.17778,0.87112 0.43566,1.54735 0.77344,2.02735 0.33778,0.46222 0.74656,0.77359 1.22656,0.93359 0.49778,0.17778 1.0766,0.26562 1.73438,0.26562 0.87111,0 1.58169,-0.13372 2.13281,-0.40039 0.5511,-0.26666 0.82617,-0.58565 0.82617,-0.95898 0,-0.17778 -0.0172,-0.35543 -0.0527,-0.5332 -0.0178,-0.19556 -0.0617,-0.40952 -0.13281,-0.64063 -0.23111,0.14222 -0.54248,0.28552 -0.93359,0.42774 -0.37333,0.12444 -0.77255,0.18554 -1.19922,0.18554 -0.39111,0 -0.73879,-0.0707 -1.04102,-0.21289 -0.30222,-0.14222 -0.55054,-0.38293 -0.74609,-0.7207 -0.19556,-0.35556 -0.34646,-0.83501 -0.45312,-1.43945 -0.0889,-0.62223 -0.13477,-1.40349 -0.13477,-2.34571 0,-1.17333 0.0726,-2.11701 0.21484,-2.82812 0.16,-0.71111 0.37201,-1.24405 0.63868,-1.59961 0.26666,-0.35556 0.55128,-0.58669 0.85351,-0.69336 0.32,-0.12445 0.63137,-0.18555 0.93359,-0.18555 0.37334,0 0.72863,0.0515 1.06641,0.15821 0.33777,0.0889 0.61479,0.19587 0.82813,0.32031 0.0889,-0.23111 0.1404,-0.45268 0.1582,-0.66602 0.0355,-0.21333 0.0547,-0.39097 0.0547,-0.5332 0,-0.35555 -0.21396,-0.64018 -0.64063,-0.85352 -0.42666,-0.23111 -0.95004,-0.3457 -1.57226,-0.3457 z m 7.51367,0 c -1.38667,0 -2.46974,0.55012 -3.25195,1.65234 -0.78223,1.08444 -1.17383,2.84374 -1.17383,5.2793 0,1.49333 0.0878,2.70251 0.26562,3.62695 0.17778,0.90667 0.44523,1.60008 0.80078,2.08008 0.35556,0.48 0.79108,0.80094 1.30664,0.96094 0.53334,0.17778 1.1389,0.26562 1.81446,0.26562 1.44,0 2.53263,-0.5425 3.27929,-1.62695 0.74667,-1.10222 1.11914,-2.89783 1.11914,-5.38672 0,-1.79556 -0.1509,-3.18999 -0.45312,-4.18554 -0.30223,-0.99556 -0.7645,-1.68897 -1.38672,-2.08008 -0.60445,-0.39112 -1.37809,-0.58594 -2.32031,-0.58594 z m 10.16015,0 c -0.72888,0 -1.44143,0.0783 -2.13476,0.23828 -0.67556,0.16 -1.30591,0.37396 -1.89258,0.64063 v 12.7207 c 0.71111,0 1.20969,-0.01 1.49414,-0.0273 0.30222,-0.0178 0.48748,-0.0541 0.5586,-0.10743 0.0711,-0.0533 0.10742,-0.15074 0.10742,-0.29297 v -10.82617 c 0.32,-0.16 0.6218,-0.27459 0.90625,-0.3457 0.30222,-0.0711 0.60402,-0.10742 0.90625,-0.10742 0.40888,0 0.70308,0.0611 0.88086,0.18555 0.19557,0.10666 0.31017,0.29388 0.3457,0.56054 0.0533,0.2489 0.0801,0.59658 0.0801,1.04102 v 9.91992 c 0.72889,0 1.24465,-0.01 1.54687,-0.0273 0.30222,-0.0178 0.47987,-0.0541 0.53321,-0.10743 0.0533,-0.0533 0.0801,-0.15074 0.0801,-0.29297 v -7.43945 -3.30664 c 0.30223,-0.19555 0.60599,-0.32928 0.90821,-0.40039 0.30222,-0.0711 0.59446,-0.10547 0.8789,-0.10547 0.53334,0 0.88102,0.14134 1.04102,0.42578 0.17778,0.28445 0.26562,0.74672 0.26562,1.38672 v 9.86719 c 0.69334,0 1.19192,-0.01 1.49414,-0.0273 0.30222,-0.0178 0.48748,-0.0541 0.5586,-0.10743 0.0711,-0.0533 0.10742,-0.15074 0.10742,-0.29297 v -9.4121 c 0,-0.8 -0.0631,-1.47624 -0.1875,-2.02735 -0.12445,-0.56889 -0.39951,-0.99485 -0.82617,-1.27929 -0.42667,-0.30223 -1.08377,-0.45313 -1.97266,-0.45313 -0.58666,0 -1.19984,0.0878 -1.83984,0.26563 -0.5286,0.13592 -0.99592,0.33369 -1.42188,0.57226 -0.0426,-0.0477 -0.0792,-0.10237 -0.125,-0.14648 -0.48,-0.46223 -1.24408,-0.69141 -2.29297,-0.69141 z m -10.24023,1.83984 c 0.44445,0 0.80169,0.12416 1.06836,0.37305 0.26667,0.24889 0.47106,0.73791 0.61328,1.4668 0.14222,0.71111 0.21289,1.777 0.21289,3.19922 0,1.38666 -0.0898,2.45255 -0.26758,3.19922 -0.17778,0.74666 -0.41653,1.26242 -0.71875,1.54687 -0.28444,0.26667 -0.62256,0.40039 -1.01367,0.40039 -0.28444,0 -0.55189,-0.0535 -0.80078,-0.16016 -0.24889,-0.12444 -0.45328,-0.35558 -0.61328,-0.69336 -0.14222,-0.35556 -0.25681,-0.87132 -0.3457,-1.54687 -0.0889,-0.67555 -0.13477,-1.55423 -0.13477,-2.63867 0,-1.38667 0.0802,-2.45451 0.24023,-3.20117 0.17778,-0.74667 0.41849,-1.25287 0.72071,-1.51953 0.30222,-0.28445 0.64795,-0.42579 1.03906,-0.42579 z m -15.08594,8.85157 c -0.48,0 -0.85247,0.16047 -1.11914,0.48046 -0.24888,0.30223 -0.375,0.65752 -0.375,1.06641 0,0.48 0.10698,0.85443 0.32031,1.12109 0.21334,0.26667 0.60495,0.4004 1.17383,0.4004 0.46223,0 0.82709,-0.15091 1.09375,-0.45313 0.26667,-0.30222 0.40039,-0.65947 0.40039,-1.06836 0,-0.46222 -0.11654,-0.83469 -0.34765,-1.11914 -0.21334,-0.28444 -0.59537,-0.42773 -1.14649,-0.42773 z"
       style="font-style:normal;font-variant:normal;font-weight:normal;font-stretch:normal;font-size:26.66666794px;line-height:1.39999998;font-family:'Yanone Kaffeesatz';-inkscape-font-specification:'Yanone Kaffeesatz, Normal';font-variant-ligatures:normal;font-variant-caps:normal;font-variant-numeric:normal;font-feature-settings:normal;text-align:end;letter-spacing:0px;word-spacing:0px;writing-mode:lr-tb;text-anchor:end;fill:#666666;fill-opacity:1;stroke:none;stroke-width:1" />
  </g>
</svg>
