<svg xmlns="http://www.w3.org/2000/svg" width="480" height="400" xmlns:v="https://vecta.io/nano"><g stroke="#000" stroke-linejoin="round"><path d="M131.586 7.767c-5.255 0-9.486 3.97-9.486 8.902v203.466c0 4.931 4.231 8.902 9.486 8.902h98.928c.028 0 .054-.005.082-.005 5.217.042 9.404 3.994 9.404 8.899 0-4.905 4.187-8.858 9.404-8.899.028 0 .054.005.082.005h98.928c5.255 0 9.486-3.97 9.486-8.902V16.668c0-4.931-4.231-8.902-9.486-8.902h-98.928c-5.255 0-9.486 3.97-9.486 8.902 0-4.931-4.231-8.902-9.486-8.902z" fill="#fff" stroke-width="4.2" paint-order="fill markers stroke"/><path d="M286.275 2v40.886l14.995-14.995 14.995 14.995V2z" fill="#f86624" stroke-width="4" paint-order="fill markers stroke"/></g><path d="M197.275 298.615c-.366 0-.549.183-.549.549v37.352c0 .366.183.549.549.549h2.797c.366 0 .549-.183.549-.549v-16.564c0-.146.074-.219.221-.219h5.648c2.633 0 4.754-.952 6.363-2.854 1.609-1.938 2.412-4.478 2.412-7.623 0-3.181-.821-5.742-2.467-7.68-1.645-1.975-3.803-2.961-6.473-2.961zm-195.609.055c-.366 0-.547.183-.547.549v2.303c0 .366.181.549.547.549h6.803a.19.19 0 0 1 .219.219v34.227c0 .366.183.549.549.549h2.797c.366 0 .549-.183.549-.549v-34.227a.19.19 0 0 1 .219-.219h7.24c.366 0 .549-.183.549-.549v-2.303c0-.366-.183-.549-.549-.549zm28.557 0a.56.56 0 0 0-.604.494l-8.227 37.297c-.037.183-.018.33.055.439a.59.59 0 0 0 .438.164h2.799c.366 0 .567-.165.604-.494l1.371-6.801c0-.073.018-.127.055-.164.073-.036.146-.055.219-.055h9.928c.073 0 .127.018.164.055.073.037.109.091.109.164l1.373 6.801c.073.329.272.494.602.494h2.854c.329 0 .494-.165.494-.494v-.109l-8.338-37.297c-.037-.329-.238-.494-.604-.494zm17.451 0c-.366 0-.549.183-.549.549v37.297c0 .366.183.549.549.549h16.125c.366 0 .549-.183.549-.549v-2.303c0-.366-.183-.549-.549-.549H51.238c-.146 0-.219-.074-.219-.221v-34.225c0-.366-.183-.549-.549-.549zm21.746 0c-.366 0-.549.183-.549.549v37.297c0 .366.183.549.549.549h16.127c.366 0 .547-.183.547-.549v-2.303c0-.366-.181-.549-.547-.549H72.986c-.146 0-.221-.074-.221-.221v-34.225c0-.366-.183-.549-.549-.549zm21.748 0c-.366 0-.549.183-.549.549v37.297c0 .366.183.549.549.549h16.289c.366 0 .549-.183.549-.549v-2.303c0-.366-.183-.549-.549-.549H94.732c-.146 0-.219-.074-.219-.221v-13.656c0-.146.072-.221.219-.221h8.008c.366 0 .549-.181.549-.547v-2.359c0-.366-.183-.549-.549-.549h-8.008a.19.19 0 0 1-.219-.219v-13.604a.19.19 0 0 1 .219-.219h12.725c.366 0 .549-.183.549-.549v-2.303c0-.366-.183-.549-.549-.549zm23.566 0c-.366 0-.547.183-.547.549v37.297c0 .366.181.549.547.549h2.799c.366 0 .549-.183.549-.549v-16.783c0-.146.073-.221.219-.221h4.771c.11 0 .182.056.219.166l5.596 16.947c.11.293.329.439.658.439h2.852c.329 0 .494-.129.494-.385l-.055-.219-5.979-17.168c-.037-.146.018-.237.164-.273 1.755-.695 3.144-1.902 4.168-3.621s1.537-3.766 1.537-6.143c0-3.145-.823-5.687-2.469-7.625-1.645-1.975-3.803-2.961-6.473-2.961zm35.246 0c-.366 0-.549.183-.549.549v37.297c0 .366.183.549.549.549h16.291c.366 0 .547-.183.547-.549v-2.303c0-.366-.181-.549-.547-.549h-12.727c-.146 0-.219-.074-.219-.221v-13.656c0-.146.072-.221.219-.221h8.008c.366 0 .549-.181.549-.547v-2.359c0-.366-.183-.549-.549-.549h-8.008a.19.19 0 0 1-.219-.219v-13.604a.19.19 0 0 1 .219-.219h12.727c.366 0 .547-.183.547-.549v-2.303c0-.366-.181-.549-.547-.549zm21.594 0c-.329 0-.494.147-.494.439l.055.219 7.68 18.375c.073.11.073.218 0 .328l-7.68 18.375c-.073.183-.073.348 0 .494.11.11.257.164.439.164h2.906c.293 0 .494-.147.604-.439l5.705-14.535c.037-.11.091-.164.164-.164s.128.054.164.164l5.705 14.535c.11.293.311.439.604.439h2.906c.329 0 .494-.147.494-.439l-.055-.219-7.734-18.32c-.037-.11-.037-.218 0-.328l7.734-18.43c.073-.183.055-.33-.055-.439-.073-.146-.202-.219-.385-.219h-2.906c-.293 0-.494.147-.604.439l-5.705 14.59c-.037.11-.091.164-.164.164s-.128-.054-.164-.164l-5.705-14.59c-.11-.293-.311-.439-.604-.439zm49.967 0c-.366 0-.549.183-.549.549v37.297c0 .366.183.549.549.549h16.291c.366 0 .549-.183.549-.549v-2.303c0-.366-.183-.549-.549-.549h-12.725c-.146 0-.221-.074-.221-.221v-13.656c0-.146.074-.221.221-.221h8.008c.366 0 .549-.181.549-.547v-2.359c0-.366-.183-.549-.549-.549h-8.008c-.146 0-.221-.072-.221-.219v-13.604c0-.146.074-.219.221-.219h12.725c.366 0 .549-.183.549-.549v-2.303c0-.366-.183-.549-.549-.549zm23.568 0c-.366 0-.549.183-.549.549v37.297c0 .366.183.549.549.549h2.797c.366 0 .549-.183.549-.549v-16.783c0-.146.072-.221.219-.221h4.773c.11 0 .182.056.219.166l5.594 16.947c.11.293.329.439.658.439h2.854c.329 0 .494-.129.494-.385l-.057-.219-5.979-17.168c-.037-.146.02-.237.166-.273 1.755-.695 3.144-1.902 4.168-3.621s1.535-3.766 1.535-6.143c0-3.145-.821-5.687-2.467-7.625-1.645-1.975-3.803-2.961-6.473-2.961zm24.318 0c-.366 0-.549.183-.549.549v37.297c0 .366.183.549.549.549h2.797c.366 0 .549-.183.549-.549v-37.297c0-.366-.183-.549-.549-.549zm11.674 0c-.366 0-.549.183-.549.549v37.297c0 .366.183.549.549.549h2.797c.366 0 .549-.183.549-.549v-29.344c0-.11.018-.164.055-.164.073 0 .148.036.221.109l5.703 11.793c.11.256.311.383.604.383.256 0 .439-.127.549-.383l5.705-11.848c.073-.073.128-.111.164-.111.073 0 .109.056.109.166v29.398c0 .366.183.549.549.549h2.797c.366 0 .549-.183.549-.549v-37.297c0-.366-.183-.549-.549-.549h-2.852c-.329 0-.548.129-.658.385l-6.199 12.67c-.037.073-.091.109-.164.109s-.128-.036-.164-.109l-6.254-12.67c-.11-.256-.329-.385-.658-.385zm28.713 0c-.366 0-.549.183-.549.549v37.297c0 .366.183.549.549.549h16.291c.366 0 .549-.183.549-.549v-2.303c0-.366-.183-.549-.549-.549h-12.727c-.146 0-.219-.074-.219-.221v-13.656c0-.146.072-.221.219-.221h8.01c.366 0 .547-.181.547-.547v-2.359c0-.366-.181-.549-.547-.549h-8.01a.19.19 0 0 1-.219-.219v-13.604a.19.19 0 0 1 .219-.219h12.727c.366 0 .549-.183.549-.549v-2.303c0-.366-.183-.549-.549-.549zm23.568 0c-.366 0-.549.183-.549.549v37.297c0 .366.183.549.549.549h2.797c.366 0 .549-.183.549-.549l-.055-28.191c0-.11.036-.166.109-.166.073-.037.128 0 .164.109l10.695 28.357c.11.293.311.439.604.439h3.236c.366 0 .549-.183.549-.549v-37.297c0-.366-.183-.549-.549-.549h-2.742c-.366 0-.549.183-.549.549v28.246c0 .11-.036.184-.109.221-.073 0-.128-.054-.164-.164l-10.75-28.412c-.11-.293-.311-.439-.604-.439zm24.912 0c-.366 0-.549.183-.549.549v2.303c0 .366.183.549.549.549h6.801a.19.19 0 0 1 .219.219v34.227c0 .366.183.549.549.549h2.797c.366 0 .549-.183.549-.549v-34.227c0-.146.074-.219.221-.219h7.24c.366 0 .547-.183.547-.549v-2.303c0-.366-.181-.549-.547-.549zm28.555 0c-.329 0-.528.165-.602.494l-8.229 37.297c-.037.183-.018.33.055.439.11.11.257.164.439.164h2.797c.366 0 .567-.165.604-.494l1.371-6.801c0-.073.018-.127.055-.164.073-.036.146-.055.219-.055h9.928c.073 0 .129.018.166.055.073.037.109.091.109.164l1.371 6.801a.56.56 0 0 0 .604.494h2.852c.329 0 .494-.165.494-.494v-.109l-8.338-37.297c-.037-.329-.238-.494-.604-.494zm17.451 0c-.366 0-.549.183-.549.549v37.297c0 .366.183.549.549.549h16.127c.366 0 .547-.183.547-.549v-2.303c0-.366-.181-.549-.547-.549h-12.561c-.146 0-.221-.074-.221-.221v-34.225c0-.366-.183-.549-.549-.549zm32.674 0c-.366 0-.549.183-.549.549v37.297c0 .366.183.549.549.549h8.447c2.816 0 5.064-.914 6.746-2.742 1.682-1.865 2.523-4.351 2.523-7.459v-17.992c0-3.108-.841-5.576-2.523-7.404-1.682-1.865-3.93-2.797-6.746-2.797zm25.068 0c-.366 0-.549.183-.549.549v37.297c0 .366.183.549.549.549h16.291c.366 0 .547-.183.547-.549v-2.303c0-.366-.181-.549-.547-.549h-12.727c-.146 0-.219-.074-.219-.221v-13.656c0-.146.072-.221.219-.221h8.008c.366 0 .549-.181.549-.547v-2.359c0-.366-.183-.549-.549-.549h-8.008a.19.19 0 0 1-.219-.219v-13.604a.19.19 0 0 1 .219-.219h12.727c.366 0 .547-.183.547-.549v-2.303c0-.366-.181-.549-.547-.549zm-261.201 3.346h4.99c1.645 0 2.98.676 4.004 2.029 1.024 1.316 1.537 3.072 1.537 5.266s-.513 3.949-1.537 5.266-2.358 1.975-4.004 1.975h-4.99c-.146 0-.221-.072-.221-.219v-14.098c0-.146.074-.219.221-.219zm-82.541.055h4.936c1.682 0 3.035.658 4.059 1.975s1.537 3.054 1.537 5.211-.513 3.895-1.537 5.211c-1.024 1.28-2.377 1.92-4.059 1.92h-4.936c-.146 0-.219-.074-.219-.221v-13.877a.19.19 0 0 1 .219-.219zm130.373 0h4.938c1.682 0 3.035.658 4.059 1.975s1.535 3.054 1.535 5.211-.511 3.895-1.535 5.211c-1.024 1.28-2.377 1.92-4.059 1.92h-4.937c-.146 0-.219-.074-.219-.221v-13.877a.19.19 0 0 1 .219-.219zm191.867 0h4.826c1.682 0 2.998.622 3.949 1.865s1.426 2.944 1.426 5.102v17.66c-.037 2.121-.548 3.804-1.535 5.047-.951 1.243-2.231 1.865-3.84 1.865l-4.826.055c-.146 0-.221-.074-.221-.221v-31.154c0-.146.075-.219.221-.219zM31.869 304.43c.037 0 .073.054.109.164l4.387 21.555c0 .146-.054.221-.164.221h-8.666c-.11 0-.164-.074-.164-.221l4.387-21.555c.037-.11.075-.164.111-.164zm356.627 0c.037 0 .073.054.109.164l4.389 21.555c0 .146-.056.221-.166.221h-8.666c-.11 0-.164-.074-.164-.221l4.389-21.555c.037-.11.073-.164.109-.164zm-142.881 46.15c-.256 0-.475.129-.658.385l-3.402 5.979c-.11.183-.128.348-.055.494.073.11.22.164.439.164h1.756c.256 0 .475-.129.658-.385l3.838-5.979c.11-.183.128-.328.055-.437-.037-.146-.163-.221-.383-.221zM32.01 360.729c-2.816 0-5.082.86-6.801 2.578-1.682 1.719-2.523 4.003-2.523 6.855v20.35c0 2.889.841 5.192 2.523 6.91C26.928 399.14 29.194 400 32.01 400s5.084-.86 6.803-2.578 2.578-4.021 2.578-6.91v-.879c0-.366-.183-.547-.549-.547l-2.854-.166c-.366 0-.547.183-.547.549v1.371c0 1.719-.495 3.108-1.482 4.168s-2.304 1.592-3.949 1.592c-1.609 0-2.925-.531-3.949-1.592-.987-1.06-1.48-2.449-1.48-4.168v-20.951c0-1.719.493-3.11 1.48-4.17 1.024-1.06 2.34-1.59 3.949-1.59 1.645 0 2.962.529 3.949 1.59s1.482 2.451 1.482 4.17v1.371c0 .366.181.547.547.547l2.854-.164c.366 0 .549-.183.549-.549v-.932c0-2.889-.86-5.173-2.578-6.855-1.682-1.719-3.951-2.578-6.803-2.578zm24.535 0c-2.816 0-5.1.878-6.855 2.633-1.719 1.755-2.578 4.076-2.578 6.965V390.4c0 2.889.86 5.212 2.578 6.967 1.755 1.755 4.04 2.633 6.855 2.633 2.852 0 5.157-.878 6.912-2.633 1.755-1.792 2.633-4.115 2.633-6.967v-20.074c0-2.889-.878-5.21-2.633-6.965s-4.06-2.633-6.912-2.633zm151.34 0c-2.633 0-4.771.839-6.416 2.521-1.645 1.645-2.469 3.896-2.469 6.748 0 1.828.33 3.419.988 4.771.695 1.353 1.572 2.522 2.633 3.51 1.06.951 2.504 2.102 4.332 3.455l3.895 3.127c.804.658 1.445 1.445 1.92 2.359.512.878.768 1.936.768 3.18 0 1.865-.511 3.364-1.535 4.498s-2.304 1.701-3.84 1.701c-1.572 0-2.853-.586-3.84-1.756-.987-1.207-1.48-2.779-1.48-4.717v-1.098c0-.366-.183-.547-.549-.547h-2.687c-.366 0-.549.181-.549.547v1.262c0 2.889.841 5.23 2.523 7.021S205.454 400 208.16 400s4.918-.896 6.637-2.687c1.719-1.828 2.578-4.242 2.578-7.24 0-1.682-.292-3.107-.877-4.277-.585-1.207-1.426-2.304-2.523-3.291-1.06-1.024-2.689-2.34-4.883-3.949l-3.729-3.018c-.841-.768-1.481-1.573-1.92-2.414-.402-.878-.604-1.882-.604-3.016 0-1.901.475-3.365 1.426-4.389.951-1.06 2.156-1.59 3.619-1.59 1.609 0 2.889.604 3.84 1.811.987 1.17 1.482 2.724 1.482 4.662v1.426c0 .366.181.549.547.549h2.744c.366 0 .547-.183.547-.549v-1.371c0-2.998-.839-5.394-2.521-7.186-1.645-1.828-3.86-2.742-6.639-2.742zm35.92 0c-2.816 0-5.102.878-6.857 2.633-1.719 1.755-2.576 4.076-2.576 6.965V390.4c0 2.889.858 5.212 2.576 6.967 1.755 1.755 4.042 2.633 6.857 2.633 2.852 0 5.155-.878 6.91-2.633 1.755-1.792 2.633-4.115 2.633-6.967v-20.074c0-2.889-.878-5.21-2.633-6.965s-4.058-2.633-6.91-2.633zm108.088 0c-2.816 0-5.082.86-6.801 2.578-1.682 1.719-2.523 4.003-2.523 6.855v20.35c0 2.889.841 5.192 2.523 6.91 1.719 1.719 3.985 2.578 6.801 2.578s5.084-.86 6.803-2.578 2.578-4.021 2.578-6.91v-.879c0-.366-.183-.547-.549-.547l-2.852-.166c-.366 0-.549.183-.549.549v1.371c0 1.719-.495 3.108-1.482 4.168s-2.304 1.592-3.949 1.592c-1.609 0-2.923-.531-3.947-1.592-.987-1.06-1.482-2.449-1.482-4.168v-20.951c0-1.719.495-3.11 1.482-4.17 1.024-1.06 2.338-1.59 3.947-1.59 1.645 0 2.962.529 3.949 1.59s1.482 2.451 1.482 4.17v1.371c0 .366.183.547.549.547l2.852-.164c.366 0 .549-.183.549-.549v-.932c0-2.889-.86-5.173-2.578-6.855-1.682-1.719-3.951-2.578-6.803-2.578zm46.068 0c-2.816 0-5.1.878-6.855 2.633-1.719 1.755-2.578 4.076-2.578 6.965V390.4c0 2.889.86 5.212 2.578 6.967 1.755 1.755 4.04 2.633 6.855 2.633 2.852 0 5.155-.878 6.91-2.633 1.755-1.792 2.633-4.115 2.633-6.967v-20.074c0-2.889-.878-5.21-2.633-6.965s-4.058-2.633-6.91-2.633zm-295.859.383c-.366 0-.549.183-.549.549v37.354c0 .366.183.547.549.547h2.797c.366 0 .549-.181.549-.547v-16.566a.19.19 0 0 1 .219-.219h5.65c2.633 0 4.752-.95 6.361-2.852 1.609-1.938 2.414-4.48 2.414-7.625 0-3.181-.823-5.74-2.469-7.678-1.645-1.975-3.803-2.963-6.473-2.963zm-28.658.055c-.366 0-.549.183-.549.549v37.299c0 .366.183.547.549.547h2.797c.366 0 .549-.181.549-.547v-29.346c0-.11.018-.164.055-.164.073 0 .146.036.219.109l5.705 11.793c.11.256.311.383.604.383.256 0 .439-.127.549-.383l5.703-11.848c.073-.073.129-.109.166-.109.073 0 .109.054.109.164v29.4c0 .366.183.547.549.547h2.797c.366 0 .549-.181.549-.547v-37.299c0-.366-.183-.549-.549-.549h-2.854c-.329 0-.547.129-.656.385l-6.199 12.67c-.037.073-.091.109-.164.109s-.127-.036-.164-.109l-6.254-12.67c-.11-.256-.329-.385-.658-.385zm52.924 0c-.366 0-.549.183-.549.549v37.299c0 .366.183.547.549.547h2.797c.366 0 .549-.181.549-.547v-16.785a.19.19 0 0 1 .219-.219h4.771c.11 0 .184.054.221.164l5.594 16.949c.11.293.329.438.658.438h2.852c.329 0 .494-.127.494-.383l-.055-.221-5.979-17.168c-.037-.146.018-.237.164-.273 1.755-.695 3.146-1.901 4.17-3.619s1.535-3.768 1.535-6.145c0-3.145-.823-5.685-2.469-7.623-1.645-1.975-3.803-2.963-6.473-2.963zm24.318 0c-.366 0-.549.183-.549.549v37.299c0 .366.183.547.549.547h16.289c.366 0 .549-.181.549-.547v-2.305c0-.366-.183-.549-.549-.549H154.25a.19.19 0 0 1-.219-.219v-13.658a.19.19 0 0 1 .219-.219h8.008c.366 0 .549-.183.549-.549v-2.357c0-.366-.183-.549-.549-.549h-8.008c-.146 0-.219-.074-.219-.221v-13.602c0-.146.072-.221.219-.221h12.725c.366 0 .549-.181.549-.547v-2.305c0-.366-.183-.549-.549-.549zm23.566 0c-.366 0-.547.183-.547.549v37.299c0 .366.181.547.547.547h2.799c.366 0 .549-.181.549-.547l-.057-28.193c0-.11.038-.164.111-.164.073-.037.127 0 .164.109l10.695 28.357a.6.6 0 0 0 .604.438h3.236c.366 0 .549-.181.549-.547v-37.299c0-.366-.183-.549-.549-.549h-2.742c-.366 0-.549.183-.549.549v28.248c0 .11-.036.182-.109.219-.073 0-.129-.054-.166-.164l-10.75-28.412c-.11-.293-.311-.439-.604-.439zm49.814 0c-.366 0-.547.183-.547.549v37.299c0 .366.181.547.547.547h2.799c.366 0 .547-.181.547-.547v-37.299c0-.366-.181-.549-.547-.549zm36.746 0c-.366 0-.549.183-.549.549v37.299c0 .366.183.547.549.547h2.797c.366 0 .549-.181.549-.547l-.055-28.193c0-.11.036-.164.109-.164.073-.037.128 0 .164.109l10.695 28.357a.6.6 0 0 0 .604.438h3.236c.366 0 .549-.181.549-.547v-37.299c0-.366-.183-.549-.549-.549h-2.742c-.366 0-.549.183-.549.549v28.248c0 .11-.036.182-.109.219-.073 0-.127-.054-.164-.164l-10.752-28.412c-.11-.293-.311-.439-.604-.439zm37.922 0c-.366 0-.547.183-.547.549v37.299c0 .366.181.547.547.547h16.127c.366 0 .549-.181.549-.547v-2.305c0-.366-.183-.549-.549-.549h-12.561c-.146 0-.221-.072-.221-.219v-34.227c0-.366-.181-.549-.547-.549zm21.748 0c-.366 0-.549.183-.549.549v37.299c0 .366.183.547.549.547h16.289c.366 0 .549-.181.549-.547v-2.305c0-.366-.183-.549-.549-.549h-12.725a.19.19 0 0 1-.219-.219v-13.658a.19.19 0 0 1 .219-.219h8.008c.366 0 .549-.183.549-.549v-2.357c0-.366-.183-.549-.549-.549h-8.008c-.146 0-.219-.074-.219-.221v-13.602c0-.146.072-.221.219-.221h12.725c.366 0 .549-.181.549-.547v-2.305c0-.366-.183-.549-.549-.549zm45.908 0c-.366 0-.549.183-.549.549v2.305c0 .366.183.547.549.547h6.801c.146 0 .221.074.221.221v34.227c0 .366.183.547.549.547h2.797c.366 0 .549-.181.549-.547v-34.227c0-.146.072-.221.219-.221h7.24c.366 0 .549-.181.549-.547v-2.305c0-.366-.183-.549-.549-.549zm48.578 0c-.366 0-.549.183-.549.549v37.299c0 .366.183.547.549.547h2.797c.366 0 .549-.181.549-.547v-16.785a.19.19 0 0 1 .219-.219h4.771c.11 0 .184.054.221.164l5.594 16.949c.11.293.329.438.658.438h2.854c.329 0 .492-.127.492-.383l-.055-.221-5.979-17.168c-.037-.146.018-.237.164-.273 1.755-.695 3.146-1.901 4.17-3.619s1.535-3.768 1.535-6.145c0-3.145-.823-5.685-2.469-7.623-1.645-1.975-3.801-2.963-6.471-2.963zm30.113 0a.56.56 0 0 0-.604.494l-8.227 37.297c-.037.183-.018.33.055.439.11.11.257.164.439.164h2.797c.366 0 .567-.163.604-.492l1.371-6.803c0-.073.018-.127.055-.164.073-.036.146-.055.219-.055h9.928c.073 0 .129.018.166.055.073.037.109.091.109.164l1.371 6.803a.56.56 0 0 0 .604.492h2.852c.329 0 .494-.163.494-.492v-.111l-8.338-37.297c-.037-.329-.238-.494-.604-.494zm-388.537 2.963c1.682 0 3.035.566 4.059 1.699 1.06 1.097 1.592 2.542 1.592 4.334v20.459c0 1.755-.531 3.198-1.592 4.332-1.024 1.097-2.377 1.646-4.059 1.646-1.645 0-2.98-.55-4.004-1.646-1.024-1.134-1.535-2.577-1.535-4.332v-20.459c0-1.792.511-3.237 1.535-4.334 1.024-1.134 2.358-1.699 4.004-1.699zm187.26 0c1.682 0 3.035.566 4.059 1.699 1.06 1.097 1.59 2.542 1.59 4.334v20.459c0 1.755-.529 3.198-1.59 4.332-1.024 1.097-2.377 1.646-4.059 1.646-1.645 0-2.98-.55-4.004-1.646-1.024-1.134-1.537-2.577-1.537-4.332v-20.459c0-1.792.513-3.237 1.537-4.334 1.024-1.134 2.358-1.699 4.004-1.699zm154.156 0c1.682 0 3.035.566 4.059 1.699 1.06 1.097 1.592 2.542 1.592 4.334v20.459c0 1.755-.531 3.198-1.592 4.332-1.024 1.097-2.377 1.646-4.059 1.646-1.645 0-2.98-.55-4.004-1.646-1.024-1.134-1.535-2.577-1.535-4.332v-20.459c0-1.792.511-3.237 1.535-4.334 1.024-1.134 2.358-1.699 4.004-1.699zm-292.295.383h4.992c1.645 0 2.98.676 4.004 2.029 1.024 1.316 1.535 3.072 1.535 5.266s-.511 3.949-1.535 5.266-2.358 1.975-4.004 1.975h-4.992a.19.19 0 0 1-.219-.219v-14.096c0-.146.073-.221.219-.221zm24.266.055h4.938c1.682 0 3.035.658 4.059 1.975s1.535 3.054 1.535 5.211-.511 3.895-1.535 5.211c-1.024 1.28-2.377 1.92-4.059 1.92h-4.937a.19.19 0 0 1-.219-.219v-13.877c0-.146.072-.221.219-.221zm288.602 0h4.938c1.682 0 3.035.658 4.059 1.975s1.535 3.054 1.535 5.211-.511 3.895-1.535 5.211c-1.024 1.28-2.377 1.92-4.059 1.92h-4.937a.19.19 0 0 1-.219-.219v-13.877c0-.146.072-.221.219-.221zm28.195 2.359c.037 0 .073.054.109.164l4.389 21.557c0 .146-.056.219-.166.219h-8.666c-.11 0-.164-.072-.164-.219l4.389-21.557c.037-.11.073-.164.109-.164z"/><path d="M297.219 191.799c-.739 0-1.491.108-2.254.322-.739.215-1.43.655-2.074 1.322-.62.644-1.12 1.609-1.502 2.896s-.572 3.005-.572 5.15c0 1.883.108 3.41.322 4.578.238 1.168.584 2.073 1.037 2.717.453.62 1.001 1.037 1.645 1.252.668.238 1.444.357 2.326.357 1.168 0 2.122-.179 2.861-.537s1.107-.786 1.107-1.287a3.63 3.63 0 0 0-.07-.715c-.024-.262-.084-.547-.18-.857-.31.191-.727.382-1.252.572-.501.167-1.037.25-1.609.25-.525 0-.989-.096-1.395-.287s-.74-.512-1.002-.965c-.262-.477-.464-1.121-.607-1.932-.119-.834-.18-1.883-.18-3.146 0-1.573.096-2.837.287-3.791.215-.954.5-1.67.857-2.146s.739-.787 1.145-.93c.429-.167.847-.25 1.252-.25a4.73 4.73 0 0 1 1.432.215c.453.119.821.263 1.107.43a3.25 3.25 0 0 0 .215-.895c.048-.286.072-.524.072-.715 0-.477-.287-.858-.859-1.145-.572-.31-1.275-.465-2.109-.465zm10.08 0c-1.86 0-3.314.739-4.363 2.217-1.049 1.454-1.574 3.814-1.574 7.08 0 2.003.119 3.626.357 4.865.238 1.216.597 2.145 1.074 2.789s1.06 1.073 1.752 1.287c.715.238 1.526.357 2.432.357 1.931 0 3.399-.727 4.4-2.182 1.002-1.478 1.502-3.885 1.502-7.223 0-2.408-.202-4.28-.607-5.615s-1.027-2.265-1.861-2.789c-.811-.524-1.848-.787-3.111-.787zm13.627 0c-.978 0-1.931.108-2.861.322-.906.215-1.754.5-2.541.857v17.059l2.004-.035c.405-.024.655-.073.75-.145s.145-.202.145-.393v-14.52c.429-.215.833-.369 1.215-.465a5.3 5.3 0 0 1 1.217-.143c.548 0 .941.083 1.18.25.262.143.417.394.465.752.072.334.107.799.107 1.395v13.303l2.074-.035c.405-.024.645-.073.717-.145s.107-.202.107-.393v-9.977-4.436c.405-.262.809-.442 1.215-.537s.8-.143 1.182-.143c.715 0 1.18.191 1.395.572.238.381.357 1.001.357 1.859v13.232l2.004-.035c.405-.024.655-.073.75-.145s.143-.202.143-.393v-12.623c0-1.073-.083-1.98-.25-2.719-.167-.763-.537-1.335-1.109-1.717-.572-.405-1.454-.607-2.646-.607-.787 0-1.608.119-2.467.357a7.89 7.89 0 0 0-1.906.768l-.168-.195c-.644-.62-1.669-.93-3.076-.93zm-13.734 2.467c.596 0 1.074.168 1.432.502s.632.989.822 1.967c.191.954.285 2.384.285 4.291 0 1.86-.119 3.29-.357 4.291s-.559 1.693-.965 2.074a1.92 1.92 0 0 1-1.359.537 2.69 2.69 0 0 1-1.072-.215c-.334-.167-.61-.477-.824-.93-.191-.477-.346-1.168-.465-2.074s-.178-2.087-.178-3.541c0-1.86.106-3.29.32-4.291.238-1.001.561-1.681.967-2.039.405-.381.87-.572 1.395-.572zm-20.236 11.873c-.644 0-1.144.215-1.502.645-.334.405-.5.881-.5 1.43 0 .644.144 1.144.43 1.502s.809.537 1.572.537c.62 0 1.109-.204 1.467-.609a2.09 2.09 0 0 0 .537-1.43c0-.62-.155-1.12-.465-1.502-.286-.381-.8-.572-1.539-.572z" fill="#662e9b"/><path d="M201.859 125.531a13.99 13.99 0 0 0-3.861.561c-1.311.375-2.576 1.101-3.793 2.178-1.171 1.077-2.224 2.622-3.16 4.635-.936 1.966-1.686 4.586-2.248 7.863-.515 3.23-.773 7.256-.773 12.078 0 4.073.188 7.513.563 10.322.375 2.762.913 5.01 1.615 6.742.702 1.685 1.523 2.972 2.459 3.861.983.889 2.06 1.498 3.23 1.826s2.435.49 3.793.49c1.732 0 3.253-.233 4.564-.701s2.317-1.077 3.02-1.826c.749-.796 1.125-1.638 1.125-2.527 0-.609-.094-1.218-.281-1.826s-.399-1.147-.633-1.615c-.609.515-1.497 1.006-2.668 1.475s-2.435.703-3.793.703a6.09 6.09 0 0 1-2.879-.703c-.843-.468-1.569-1.31-2.178-2.527-.609-1.264-1.1-3.021-1.475-5.268-.328-2.247-.492-5.149-.492-8.707 0-3.698.164-6.81.492-9.338.375-2.528.842-4.588 1.404-6.18s1.218-2.81 1.967-3.652c.796-.889 1.614-1.473 2.457-1.754.89-.328 1.78-.492 2.67-.492.702 0 1.358.117 1.967.352.609.187 1.124.42 1.545.701.468.234.819.446 1.053.633.234-.421.446-.936.633-1.545s.281-1.241.281-1.896c0-.609-.188-1.194-.562-1.756-.375-.609-1.054-1.1-2.037-1.475-.936-.421-2.272-.631-4.004-.631zm46.699 0c-3.043 0-5.571.795-7.584 2.387-1.967 1.545-3.443 4.144-4.426 7.795s-1.475 8.59-1.475 14.816c0 5.056.235 9.245.703 12.568.468 3.277 1.193 5.876 2.176 7.795 1.03 1.919 2.342 3.276 3.934 4.072 1.639.749 3.606 1.123 5.9 1.123 3.09 0 5.594-.795 7.514-2.387 1.966-1.638 3.396-4.331 4.285-8.076.936-3.745 1.404-8.846 1.404-15.307 0-4.775-.235-8.731-.703-11.867-.421-3.183-1.122-5.711-2.105-7.584-.983-1.919-2.271-3.276-3.863-4.072-1.592-.843-3.512-1.264-5.76-1.264zm77.051 0c-3.886 0-6.881.936-8.988 2.809-2.06 1.873-3.09 4.283-3.09 7.232 0 1.685.327 3.324.982 4.916.702 1.545 1.849 3.299 3.441 5.266l7.023 8.215c1.545 1.779 2.598 3.348 3.16 4.705.609 1.358.912 2.832.912 4.424 0 2.153-.538 3.887-1.615 5.197-1.03 1.311-2.786 1.965-5.268 1.965-1.686 0-3.136-.233-4.354-.701-1.171-.468-2.13-1.054-2.879-1.756a5.73 5.73 0 0 0-1.125 2.107c-.234.749-.35 1.403-.35 1.965 0 .983.724 1.943 2.176 2.879 1.498.889 3.863 1.334 7.094 1.334 3.184 0 5.666-.607 7.445-1.824 1.826-1.217 3.114-2.833 3.863-4.846.796-2.013 1.193-4.191 1.193-6.531 0-2.2-.329-4.19-.984-5.969s-1.895-3.745-3.721-5.898l-7.586-8.637c-1.03-1.264-1.85-2.41-2.459-3.439-.562-1.077-.842-2.248-.842-3.512 0-1.545.609-2.739 1.826-3.582 1.264-.843 2.95-1.264 5.057-1.264 1.639 0 3.066.212 4.283.633 1.264.375 2.131.725 2.6 1.053.468-.515.819-1.053 1.053-1.615.234-.609.352-1.147.352-1.615 0-.983-.703-1.802-2.107-2.457-1.405-.702-3.769-1.053-7.094-1.053zm-175.082.701c-1.873 0-3.208.023-4.004.07s-1.287.188-1.475.422-.281.608-.281 1.123v47.539h16.715c.328 0 .586-.071.773-.211.234-.14.352-.444.352-.912v-4.215h-12.08zm17.59 0c-.562 0-.914.188-1.055.563l-.139.563v48.029h16.645c.375 0 .631-.094.771-.281s.234-.632.281-1.334c.047-.749.07-1.92.07-3.512h-12.08v-19.03h9.553c.515 0 .818-.327.912-.982s.141-2.06.141-4.213h-10.605v-14.676h11.309c.328 0 .561-.118.701-.352s.234-.702.281-1.404.07-1.826.07-3.371zm42.738 0c-.796 0-1.193.376-1.193 1.125v4.213h9.551v43.816c1.873 0 3.208-.024 4.004-.07s1.264-.141 1.404-.281c.187-.14.281-.397.281-.771V131.57h8.639c.421 0 .725-.071.912-.211.187-.187.281-.493.281-.914v-4.213zm56.504 0c-.562 0-.912.188-1.053.563l-.141.563v48.029c1.873 0 3.206-.024 4.002-.07s1.264-.141 1.404-.281c.187-.14.281-.397.281-.771v-18.82h2.529c.445 0 .883-.017 1.316-.051.581.713 1.24 1.82 1.984 3.352.843 1.592 1.616 3.769 2.318 6.531.749 2.715 1.241 6.085 1.475 10.111a25.7 25.7 0 0 0 1.826.07 20.57 20.57 0 0 0 1.545.07c1.358 0 2.176-.094 2.457-.281.281-.234.422-.608.422-1.123-.234-3.932-.796-7.305-1.686-10.113s-1.849-5.102-2.879-6.881c-.779-1.382-1.479-2.478-2.098-3.297a11.1 11.1 0 0 0 2.309-1.758c1.217-1.17 2.153-2.715 2.809-4.635.702-1.966 1.053-4.4 1.053-7.303 0-3.277-.468-5.923-1.404-7.936-.89-2.06-2.293-3.558-4.213-4.494-1.92-.983-4.355-1.475-7.305-1.475h-3.582zm26.133 0c-.562 0-.912.188-1.053.563l-.141.563v48.029h16.645c.375 0 .631-.094.771-.281s.234-.632.281-1.334c.047-.749.07-1.92.07-3.512h-12.08v-19.03h9.553c.515 0 .818-.327.912-.982s.141-2.06.141-4.213h-10.605v-14.676h11.309c.328 0 .561-.118.701-.352s.234-.702.281-1.404.07-1.826.07-3.371zm-21.639 4.986h3.512c1.405 0 2.505.351 3.301 1.053.843.655 1.428 1.638 1.756 2.949s.492 2.856.492 4.635c0 2.481-.235 4.494-.703 6.039-.468 1.498-1.146 2.599-2.035 3.301-.843.655-1.919.982-3.23.982h-3.092zm-23.436.211c1.686 0 2.974.607 3.863 1.824.936 1.217 1.592 3.23 1.967 6.039.375 2.762.563 6.485.563 11.166 0 4.728-.235 8.566-.703 11.516-.421 2.902-1.124 5.01-2.107 6.32-.936 1.264-2.27 1.895-4.002 1.895-1.639 0-2.95-.607-3.934-1.824-.936-1.264-1.616-3.23-2.037-5.898-.375-2.668-.562-6.18-.562-10.533 0-5.056.235-9.082.703-12.078s1.218-5.15 2.248-6.461 2.363-1.965 4.002-1.965zm.142-76.572c-3.043 0-5.571.797-7.584 2.389-1.966 1.545-3.443 4.142-4.426 7.793s-1.475 8.59-1.475 14.816c0 5.056.235 9.247.703 12.57.468 3.277 1.193 5.874 2.176 7.793 1.03 1.919 2.342 3.276 3.934 4.072 1.639.749 3.606 1.125 5.9 1.125 3.09 0 5.594-.797 7.514-2.389 1.966-1.638 3.396-4.329 4.285-8.074.936-3.745 1.404-8.848 1.404-15.309 0-4.775-.235-8.731-.703-11.867-.421-3.183-1.122-5.71-2.105-7.582-.983-1.919-2.271-3.278-3.863-4.074-1.592-.843-3.512-1.264-5.76-1.264zm77.051 0c-3.886 0-6.881.936-8.988 2.809-2.06 1.873-3.09 4.283-3.09 7.232 0 1.685.327 3.324.982 4.916.702 1.545 1.849 3.299 3.441 5.266l7.023 8.217c1.545 1.779 2.598 3.348 3.16 4.705.609 1.358.912 2.832.912 4.424 0 2.153-.538 3.885-1.615 5.195-1.03 1.311-2.786 1.967-5.268 1.967-1.686 0-3.136-.235-4.354-.703-1.171-.468-2.13-1.054-2.879-1.756a5.73 5.73 0 0 0-1.125 2.107c-.234.749-.35 1.405-.35 1.967 0 .983.724 1.943 2.176 2.879 1.498.889 3.863 1.334 7.094 1.334 3.184 0 5.666-.609 7.445-1.826 1.826-1.217 3.114-2.833 3.863-4.846.796-2.013 1.193-4.189 1.193-6.529 0-2.2-.329-4.19-.984-5.969s-1.895-3.745-3.721-5.898l-7.586-8.637c-1.03-1.264-1.85-2.412-2.459-3.441-.562-1.077-.842-2.248-.842-3.512 0-1.545.609-2.737 1.826-3.58 1.264-.843 2.95-1.264 5.057-1.264 1.639 0 3.066.21 4.283.631 1.264.374 2.131.727 2.6 1.055.468-.515.819-1.053 1.053-1.615.234-.609.352-1.147.352-1.615 0-.983-.703-1.804-2.107-2.459-1.405-.702-3.769-1.053-7.094-1.053zm-165.52.703c-.328 0-.608.071-.842.211-.234.094-.352.397-.352.912v48.029c1.779 0 3.067-.023 3.863-.07s1.287-.141 1.475-.281c.234-.14.352-.397.352-.771l-.141-16.291c0-1.217-.047-2.574-.141-4.072a72.32 72.32 0 0 0-.281-4.494 113.45 113.45 0 0 0-.352-4.424l-.279-3.793c-.047-1.124-.117-2.013-.211-2.668l-.07-.982.064-.102.146.523 1.193 4.494 1.334 4.703a71.79 71.79 0 0 1 1.123 3.934c.328 1.124.563 1.872.703 2.246l3.652 11.236h2.457c.375 0 .633-.188.773-.562l3.723-10.674a109.99 109.99 0 0 0 .701-2.246l1.125-3.934 1.264-4.633 1.264-4.424.191-.691-.051.762-.211 2.809-.281 4.002-.35 4.564-.281 4.635-.07 4.072-.281 17.133c1.966 0 3.349-.023 4.145-.07s1.264-.141 1.404-.281c.187-.14.281-.397.281-.771v-48.03h-.211-1.125-3.301c-.375 0-.631.116-.771.35a15.51 15.51 0 0 0-.352.773l-6.18 20.293a47.81 47.81 0 0 0-.703 2.316l-.703 2.529-.49 2.035-.141.773-.281-.773c-.14-.562-.328-1.239-.562-2.035-.187-.843-.42-1.708-.701-2.598-.234-.889-.469-1.686-.703-2.389l-6.672-21.275zm33.678 0c-.562 0-.912.186-1.053.561l-.141.563v48.029h16.645c.375 0 .633-.094.773-.281s.234-.632.281-1.334c.047-.749.07-1.918.07-3.51h-12.08V80.559h9.551c.515 0 .82-.329.914-.984s.139-2.06.139-4.213h-10.604V60.686h11.307c.328 0 .563-.118.703-.352s.232-.702.279-1.404.07-1.824.07-3.369zm34.271 0c-1.92 0-3.278.047-4.074.141-.796.047-1.287.256-1.475.631-.14.328-.211.937-.211 1.826v33.705c0 1.826-.092 3.371-.279 4.635-.187 1.217-.61 2.153-1.266 2.809s-1.662.982-3.02.982c-1.171 0-2.271-.233-3.301-.701-1.03-.515-1.872-1.053-2.527-1.615l-.562 1.334c-.187.515-.281 1.147-.281 1.896 0 .702.211 1.38.633 2.035.468.609 1.24 1.1 2.316 1.475 1.077.421 2.553.633 4.426.633 1.966 0 3.558-.305 4.775-.914 1.264-.609 2.247-1.451 2.949-2.527.702-1.124 1.194-2.434 1.475-3.932s.422-3.114.422-4.846zm39.32 0c-.562 0-.912.186-1.053.561l-.141.563v48.029c1.873 0 3.206-.023 4.002-.07s1.266-.141 1.406-.281c.187-.14.279-.397.279-.771v-18.82h2.529a16.78 16.78 0 0 0 1.316-.053c.581.713 1.24 1.819 1.984 3.352.843 1.592 1.616 3.769 2.318 6.531.749 2.715 1.24 6.085 1.475 10.111a25.76 25.76 0 0 0 1.826.07 20.57 20.57 0 0 0 1.545.07c1.358 0 2.176-.094 2.457-.281.281-.234.422-.608.422-1.123-.234-3.932-.796-7.303-1.686-10.111s-1.849-5.102-2.879-6.881c-.779-1.382-1.479-2.48-2.098-3.299a11.1 11.1 0 0 0 2.309-1.758c1.217-1.17 2.153-2.715 2.809-4.635.702-1.966 1.053-4.4 1.053-7.303 0-3.277-.468-5.921-1.404-7.934-.89-2.06-2.293-3.558-4.213-4.494-1.92-.983-4.355-1.475-7.305-1.475h-3.582zm26.133 0c-.562 0-.912.186-1.053.561l-.141.563v48.029h16.645c.375 0 .631-.094.771-.281s.234-.632.281-1.334c.047-.749.07-1.918.07-3.51h-12.08V80.559h9.553c.515 0 .818-.329.912-.984s.141-2.06.141-4.213h-10.605V60.686h11.309c.328 0 .561-.118.701-.352s.234-.702.281-1.404.07-1.824.07-3.369zm-21.639 4.984h3.512c1.405 0 2.505.353 3.301 1.055.843.655 1.428 1.638 1.756 2.949s.492 2.854.492 4.633c0 2.481-.235 4.494-.703 6.039-.468 1.498-1.146 2.599-2.035 3.301-.843.655-1.919.982-3.23.982h-3.092zm-23.436.211c1.686 0 2.974.609 3.863 1.826.936 1.217 1.592 3.23 1.967 6.039.375 2.762.563 6.483.563 11.164 0 4.728-.235 8.566-.703 11.516-.421 2.902-1.124 5.01-2.107 6.32-.936 1.264-2.27 1.896-4.002 1.896-1.639 0-2.95-.609-3.934-1.826-.936-1.264-1.616-3.23-2.037-5.898-.375-2.668-.562-6.18-.562-10.533 0-5.056.235-9.082.703-12.078s1.218-5.148 2.248-6.459 2.363-1.967 4.002-1.967z"/></svg>