<?xml version="1.0" encoding="UTF-8" standalone="no"?>
<svg
   xmlns:dc="http://purl.org/dc/elements/1.1/"
   xmlns:cc="http://creativecommons.org/ns#"
   xmlns:rdf="http://www.w3.org/1999/02/22-rdf-syntax-ns#"
   xmlns:svg="http://www.w3.org/2000/svg"
   xmlns="http://www.w3.org/2000/svg"
   xmlns:xlink="http://www.w3.org/1999/xlink"
   viewBox="0 -20 200 220"
   version="1.1"
   id="svg836">
  <metadata
     id="metadata19">
    <rdf:RDF>
      <cc:Work
         rdf:about="">
        <dc:format>image/svg+xml</dc:format>
        <dc:type
           rdf:resource="http://purl.org/dc/dcmitype/StillImage" />
        <dc:title></dc:title>
      </cc:Work>
    </rdf:RDF>
  </metadata>
  <defs
     id="defs17" />
  <style
     type="text/css"
     id="style2"><![CDATA[
        @keyframes jump {
          0% {
            transform: scale(1, 1) translateY(0px);
          }
          50% {
            transform: scale(0.96, 1.05) translateY(-5px);
          }
          100% {
            transform: scale(1, 1) translateY(0px);
          }
        }

        #monster-inicio {
          animation: jump 2s infinite ease;
          transform-origin: center bottom;
        }
      ]]></style>
  <rect
     y="0"
     x="0"
     height="200"
     width="200"
     id="rect826"
     style="fill:#ffffff;fill-opacity:0.08888889;stroke:none;stroke-width:4.99900007;stroke-linecap:square;stroke-linejoin:round;stroke-miterlimit:4;stroke-dasharray:none;stroke-opacity:1;paint-order:markers fill stroke" />
  <g
     transform="matrix(0.83308288,0,0,0.83308288,19.995255,34.033653)"
     id="monster-inicio">
    <a
       style="display:inline"
       xlink:href="/baby-card/"
       xlink:title="BABY Card"
       target="_top"
       id="a31">     
    <path
       style="fill:#3fd4cf;stroke:#a37ccb;stroke-width:6;stroke-linecap:round"
       id="path1619"
       d="m 44.75,42.546 c 0,0 -15.75,4.473 -15.25,-13.527 0.294,-10.58 -9.987,-4.609 -11.5,8 -3,25 23.613,27 23.613,27" />
    <path
       style="fill:#3fd4cf;stroke:#a37ccb;stroke-width:6;stroke-linecap:round"
       id="path1621"
       d="m 145,43.368 c 0,0 16.409,2.816 14.389,-11.224 -1.889,-13.125 11.608,-8.007 11.611,9.875 0.004,22.982 -23.904,21.457 -23.904,21.457" />
    <path
       style="fill:#ffffff;stroke:#a37ccb;stroke-width:6;stroke-linecap:round"
       id="path1611"
       d="m 44.5,113.684 c 0,0 -17.333,-39.332 -0.333,-76.665 21.181,-46.516 83.907,-44.281 104,0.333 14.75,32.75 6.166,58.666 1.666,77.665 0,0 18.264,-2.166 29.917,3 13.501,5.985 12.25,25.333 -3.25,29 C 160.215,150.87 39.382,151.655 14.167,147.35 3.917,145.6 -1.5,130.96 7.625,121.46 14.603,114.195 24.75,111.767 44.5,113.684 Z" />
    <path
       style="fill:#ffffff;stroke:#a37ccb;stroke-width:6;stroke-linecap:round"
       id="path1613"
       d="m 49.708,134.249 c 0,0 2.417,34.833 7.667,46.583 6.75,11.25 22.818,11.578 26.667,-3.25 2.138,-8.236 -3,-39 -3,-39" />
    <path
       style="fill:#ffffff;stroke:#a37ccb;stroke-width:6;stroke-linecap:round"
       id="path1615"
       d="m 108.461,136.456 c 0,0 1.113,28.36 5,40.667 4,12.666 21.798,17.557 27.501,2.833 4.787,-12.358 1.833,-47.833 1.833,-47.833" />
    <g
       style="display:inline"
       display="inline"
       id="g10">
      <ellipse
         style="fill:#a37ccb"
         id="ellipse1623"
         cx="88.537003"
         cy="60.884998"
         rx="31.094999"
         ry="32.117001" />
      <ellipse
         style="fill:#ffffff"
         id="ellipse1625"
         cx="79.669998"
         cy="54.800999"
         rx="14.428"
         ry="14.901" />
      <ellipse
         style="fill:#ffffff"
         id="ellipse1625_1_"
         cx="102.052"
         cy="72.246002"
         rx="6.4289999"
         ry="6.6399999" />
    </g>
    <path
       style="display:inline;fill:none;stroke:#a37ccb;stroke-width:7;stroke-linecap:round"
       display="inline"
       id="path1617"
       d="m 94.168,112.683 c 8.25,6.25 24.75,5 33,-12.5" />
    </a>
  </g>
</svg>
