<?xml version="1.0" standalone="no"?>
<!DOCTYPE svg PUBLIC "-//W3C//DTD SVG 20010904//EN"
 "http://www.w3.org/TR/2001/REC-SVG-20010904/DTD/svg10.dtd">
<svg version="1.0" xmlns="http://www.w3.org/2000/svg"
 width="700.000000pt" height="700.000000pt" viewBox="0 0 700.000000 700.000000"
 preserveAspectRatio="xMidYMid meet">
<metadata>
Created by potrace 1.14, written by Peter Selinger 2001-2017
</metadata>
<g transform="translate(0.000000,700.000000) scale(0.100000,-0.100000)"
fill="#000000" stroke="none">
<path d="M2903 6990 c-40 -16 -63 -68 -63 -142 l0 -68 -484 0 c-522 0 -577 -4
-725 -55 -378 -129 -650 -437 -737 -835 -18 -82 -19 -183 -19 -2500 0 -2317 1
-2418 19 -2500 51 -233 152 -416 323 -581 136 -131 301 -225 490 -277 l98 -27
1695 0 1695 0 98 27 c189 52 354 146 490 277 138 133 231 278 285 446 60 185
57 28 57 2645 0 2307 -1 2408 -19 2490 -72 332 -274 604 -566 763 -128 70
-336 127 -461 127 l-49 0 0 76 c0 73 -1 77 -34 110 l-34 34 -1018 -1 c-581 0
-1029 -4 -1041 -9z m-61 -1876 l3 -1446 33 -29 c26 -23 42 -29 79 -29 l48 0
467 467 468 468 468 -468 467 -467 46 0 c57 0 94 27 109 78 6 25 10 514 10
1455 l0 1418 63 -7 c239 -26 473 -155 614 -339 65 -85 124 -202 155 -310 l23
-80 0 -2435 0 -2435 -23 -80 c-91 -313 -333 -547 -647 -627 l-90 -23 -1635 0
-1635 0 -88 22 c-321 82 -557 311 -649 630 l-23 78 0 2435 0 2435 23 80 c98
341 384 594 727 644 33 5 268 9 522 10 l463 1 2 -1446z"/>
</g>
</svg>
