<?xml version="1.0" standalone="no"?>
<!DOCTYPE svg PUBLIC "-//W3C//DTD SVG 20010904//EN"
 "http://www.w3.org/TR/2001/REC-SVG-20010904/DTD/svg10.dtd">
<svg version="1.0" xmlns="http://www.w3.org/2000/svg"
 width="700.000000pt" height="700.000000pt" viewBox="0 0 700.000000 700.000000"
 preserveAspectRatio="xMidYMid meet">
<metadata>
Created by potrace 1.14, written by Peter Selinger 2001-2017
</metadata>
<g transform="translate(0.000000,700.000000) scale(0.100000,-0.100000)"
fill="#000000" stroke="none">
<path d="M4156 6984 c-3 -9 -6 -44 -6 -79 l0 -63 -227 -4 c-222 -3 -229 -4
-284 -29 -31 -15 -75 -43 -98 -64 l-41 -37 -41 37 c-23 21 -67 49 -98 64 l-56
26 -1510 0 c-1471 0 -1511 -1 -1562 -19 -105 -39 -196 -136 -223 -237 -7 -24
-9 -1108 -8 -3050 l3 -3014 24 -52 c28 -63 112 -145 178 -176 l48 -22 1510 -5
c1610 -5 1539 -3 1594 -53 30 -28 60 -93 61 -130 0 -38 41 -77 80 -77 39 0 80
39 80 77 1 37 31 102 61 130 55 50 -16 48 1594 53 l1510 5 48 22 c66 31 150
113 178 176 l24 52 3 3014 c1 1942 -1 3026 -8 3050 -16 61 -72 143 -125 183
-94 71 -98 72 -497 76 l-358 3 0 64 c0 35 -3 70 -6 79 -6 14 -96 16 -924 16
-828 0 -918 -2 -924 -16z m1674 -1031 l0 -907 -67 64 c-37 36 -197 192 -354
348 -284 278 -288 282 -329 282 -41 0 -45 -4 -328 -282 -158 -155 -317 -312
-354 -347 l-68 -65 0 907 0 907 750 0 750 0 0 -907z m-2509 694 c54 -29 86
-74 95 -135 9 -62 36 -92 85 -92 47 0 74 31 83 94 9 60 42 107 96 134 42 21
56 22 257 22 l213 0 0 -927 c0 -728 3 -933 13 -953 18 -35 62 -54 98 -44 19 6
173 150 424 397 l395 388 395 -388 c251 -247 405 -391 424 -397 36 -10 80 9
98 44 10 20 13 225 13 953 l0 928 353 -3 353 -3 41 -27 c22 -14 48 -43 59 -65
19 -37 19 -107 19 -3018 0 -1639 -3 -2992 -7 -3007 -10 -35 -53 -85 -92 -106
-29 -16 -139 -17 -1541 -22 l-1510 -5 -55 -27 c-30 -15 -72 -42 -93 -61 l-37
-35 -37 35 c-21 19 -63 46 -93 61 l-55 27 -1510 5 c-1402 5 -1512 6 -1541 22
-43 24 -81 71 -94 117 -7 26 -9 988 -8 3013 l3 2974 27 41 c15 23 44 49 70 62
l43 21 1486 0 1486 0 44 -23z"/>
<path d="M960 2565 l0 -1125 190 0 190 0 2 688 3 689 349 -494 349 -494 76 3
76 3 345 493 345 493 3 -690 2 -691 195 0 195 0 0 1125 0 1126 -107 -3 -107
-3 -471 -671 c-258 -370 -473 -670 -476 -668 -4 2 -220 305 -480 674 l-474
670 -102 0 -103 0 0 -1125z"/>
<path d="M4430 2560 l0 -1120 805 0 805 0 0 180 0 180 -605 0 -605 0 0 940 0
940 -200 0 -200 0 0 -1120z"/>
</g>
</svg>
