<?xml version="1.0" encoding="UTF-8" standalone="no"?>
<svg
   xmlns:dc="http://purl.org/dc/elements/1.1/"
   xmlns:cc="http://creativecommons.org/ns#"
   xmlns:rdf="http://www.w3.org/1999/02/22-rdf-syntax-ns#"
   xmlns:svg="http://www.w3.org/2000/svg"
   xmlns="http://www.w3.org/2000/svg"
   style="fill:currentColor"
   id="svg4"
   version="1.1"
   viewBox="0 0 160 160"
   class="bi bi-gift"
   height="160"
   width="160">
  <metadata
     id="metadata10">
    <rdf:RDF>
      <cc:Work
         rdf:about="">
        <dc:format>image/svg+xml</dc:format>
        <dc:type
           rdf:resource="http://purl.org/dc/dcmitype/StillImage" />
        <dc:title></dc:title>
      </cc:Work>
    </rdf:RDF>
  </metadata>
  <defs
     id="defs8" />
  <rect
     y="0"
     x="0"
     height="160"
     width="160"
     id="rect817"
     style="fill:#ffffff;fill-opacity:1;stroke:none;stroke-width:15;stroke-linecap:round;stroke-opacity:1;paint-order:markers fill stroke" />
  <path
     d="m 48.75,45.625001 a 15.625,15.625 0 0 1 31.25,0 15.625,15.625 0 0 1 31.25,0 v 0.0375 c 0,0.4375 0,1.6875 -0.2375,3.0875 H 123.75 a 6.25,6.25 0 0 1 6.25,6.25 v 12.5 a 6.25,6.25 0 0 1 -6.25,6.25 V 120.625 A 9.375,9.375 0 0 1 114.375,130 H 45.625 A 9.375,9.375 0 0 1 36.25,120.625 V 73.750001 a 6.25,6.25 0 0 1 -6.25,-6.25 v -12.5 a 6.25,6.25 0 0 1 6.25,-6.25 h 12.7375 a 18.55,18.55 0 0 1 -0.2375,-3.0875 z m 6.675,3.125 H 73.75 v -3.125 a 9.375,9.375 0 1 0 -18.75,0 c 0,0.53125 0.0125,1.7125 0.28125,2.6875 a 3.2625,3.2625 0 0 0 0.14375,0.4375 z m 30.825,0 h 18.325 a 3.5,3.5 0 0 0 0.14375,-0.4375 C 104.9875,47.337501 105,46.156251 105,45.625001 a 9.375,9.375 0 0 0 -18.75,0 z m -50,6.25 v 12.5 h 37.5 v -12.5 z m 50,0 v 12.5 h 37.5 v -12.5 z m 31.25,18.75 H 86.25 V 123.75 h 28.125 a 3.125,3.125 0 0 0 3.125,-3.125 z M 73.75,123.75 V 73.750001 H 42.5 V 120.625 a 3.125,3.125 0 0 0 3.125,3.125 z"
     id="path819"
     style="fill:#ced4da;fill-opacity:1;stroke-width:6.25" />
</svg>
