<?xml version="1.0" encoding="UTF-8" standalone="no"?>
<svg
   xmlns:dc="http://purl.org/dc/elements/1.1/"
   xmlns:cc="http://creativecommons.org/ns#"
   xmlns:rdf="http://www.w3.org/1999/02/22-rdf-syntax-ns#"
   xmlns:svg="http://www.w3.org/2000/svg"
   xmlns="http://www.w3.org/2000/svg"
   enable-background="new"
   id="svg8"
   version="1.1"
   viewBox="0 0 50.800007 50.8"
   height="192"
   width="192">
  <defs
     id="defs2" />
  <metadata
     id="metadata5">
    <rdf:RDF>
      <cc:Work
         rdf:about="">
        <dc:format>image/svg+xml</dc:format>
        <dc:type
           rdf:resource="http://purl.org/dc/dcmitype/StillImage" />
        <dc:title></dc:title>
      </cc:Work>
    </rdf:RDF>
  </metadata>
  <g
     id="g893"
     style="display:inline">
    <path
       style="display:inline;opacity:1;fill:#ffffff;fill-opacity:1;stroke:none;stroke-width:1.5875001;stroke-linecap:round;stroke-miterlimit:4;stroke-dasharray:none;stroke-dashoffset:0;stroke-opacity:1"
       d="M 4.2333336,0 A 4.2333336,4.2333336 0 0 0 0,4.2333336 V 46.56667 a 4.2333336,4.2333336 0 0 0 4.2333336,4.233333 H 46.56667 A 4.2333336,4.2333336 0 0 0 50.800003,46.56667 V 4.2333336 A 4.2333336,4.2333336 0 0 0 46.56667,0 Z"
       id="path891" />
  </g>
  <g
     style="display:inline"
     id="layer1">
    <path
       id="path1248"
       d="m 5.856692,33.866669 c 0,0 0.350401,0.04113 0.635544,0.354289 0.825939,0.90847 1.568644,2.025949 2.371247,3.36574 0.156149,0.260958 0.288879,0.513305 0.613272,0.513305 l 2.513687,-5.31e-4 c -0.07807,-0.0027 -0.354973,-0.0369 -0.54231,-0.371901 C 10.426369,35.90151 9.57255,34.752626 9.162867,34.366494 8.748095,33.976146 8.541256,33.866669 8.09275,33.866669 Z m 7.347344,0 c 0,0 0.3504,0.04113 0.635544,0.354289 0.825938,0.908682 1.568646,2.026257 2.371247,3.36626 0.156363,0.260743 0.289303,0.512785 0.613271,0.512785 l 2.513688,-5.31e-4 c -0.07808,-0.0027 -0.354974,-0.03667 -0.54231,-0.371901 -1.021764,-1.826047 -1.875159,-2.974203 -2.285265,-3.360547 -0.414137,-0.390374 -0.620881,-0.500355 -1.069599,-0.500355 z m 7.347343,0 c 0,0 0.350095,0.04113 0.635026,0.354289 0.826151,0.90847 1.569164,2.025949 2.371765,3.36574 0.156363,0.260958 0.288878,0.513305 0.613272,0.513305 l 2.514205,-5.31e-4 c -0.07807,-0.0027 -0.356009,-0.03689 -0.543346,-0.371901 -1.02155,-1.826031 -1.87464,-2.974932 -2.284746,-3.361064 -0.414137,-0.390377 -0.620882,-0.499838 -1.0696,-0.499838 z m 7.347861,0 c 0,0 0.350404,0.04113 0.635546,0.354289 0.825939,0.908682 1.568643,2.026257 2.371245,3.36626 0.156364,0.260743 0.288878,0.512785 0.613272,0.512785 l 2.514205,-5.31e-4 c -0.07807,-0.0027 -0.355487,-0.03667 -0.542826,-0.371901 -1.021762,-1.826061 -1.875375,-2.974216 -2.285266,-3.36056 -0.414348,-0.390361 -0.62088,-0.500342 -1.069598,-0.500342 z m 7.347862,0 c 0,0 0.350093,0.04113 0.635025,0.354289 0.826152,0.90847 1.569683,2.025949 2.372285,3.36574 0.156361,0.260958 0.288358,0.513305 0.612752,0.513305 l 2.514206,-5.31e-4 c -0.07807,-0.0027 -0.356008,-0.03689 -0.543347,-0.371901 -1.021547,-1.826061 -1.874637,-2.974945 -2.284745,-3.361077 -0.414134,-0.390348 -0.620883,-0.499825 -1.069599,-0.499825 z m 7.347861,0 c 0,0 0.350401,0.04113 0.635545,0.354289 0.82594,0.908682 1.569164,2.026257 2.371766,3.36626 0.156363,0.260743 0.28836,0.512785 0.612754,0.512785 l 2.514203,-5.31e-4 c -0.07807,-0.0027 -0.35549,-0.03667 -0.542827,-0.371901 -1.021764,-1.826061 -1.874857,-2.974216 -2.284745,-3.36056 -0.414352,-0.390361 -0.6214,-0.500342 -1.070118,-0.500342 z"
       style="fill:#af8dd2;fill-opacity:1;stroke-width:0.21216004" />
    <path
       id="path1234"
       d="m 5.690317,33.866669 c -0.323778,2.65e-4 -0.455961,0.251976 -0.612235,0.512785 -0.802813,1.340215 -1.545827,2.458003 -2.371765,3.36626 -0.284508,0.313361 -0.635544,0.354289 -0.635544,0.354289 h 2.236576 c 0.448506,0 0.65598,-0.109135 1.070117,-0.500355 0.409894,-0.386556 1.262984,-1.5345 2.284747,-3.360561 0.187761,-0.335213 0.464542,-0.369143 0.542828,-0.371901 l -2.514206,-5.17e-4 z m 7.34838,0 c -0.324181,0 -0.456605,0.252132 -0.612754,0.513305 -0.803025,1.340215 -1.546039,2.456966 -2.371765,3.365222 -0.284718,0.313576 -0.635544,0.354807 -0.635544,0.354807 h 2.236576 c 0.448507,0 0.655982,-0.10861 1.070117,-0.499838 0.409895,-0.386554 1.262984,-1.535019 2.284747,-3.361078 0.187761,-0.335213 0.46506,-0.36914 0.543346,-0.371901 z m 7.348379,0 c -0.324181,0 -0.456391,0.25183 -0.612753,0.512785 -0.802814,1.340215 -1.546038,2.458003 -2.371765,3.36626 -0.284718,0.313363 -0.635544,0.354289 -0.635544,0.354289 h 2.236576 c 0.448507,0 0.655982,-0.109135 1.070117,-0.500355 0.409893,-0.386556 1.262983,-1.5345 2.284747,-3.360561 0.187761,-0.335213 0.46454,-0.369143 0.542828,-0.371901 z m 7.347344,0 c -0.324179,0 -0.455873,0.252132 -0.612234,0.513305 -0.803028,1.340215 -1.546558,2.456966 -2.372284,3.365222 -0.284719,0.313576 -0.635545,0.354807 -0.635545,0.354807 h 2.237094 c 0.448508,0 0.655463,-0.10861 1.0696,-0.499838 0.409893,-0.386554 1.263289,-1.535017 2.285265,-3.361078 0.187549,-0.335213 0.464235,-0.369143 0.54231,-0.371901 l -2.513689,-5.17e-4 z m 7.347344,0 c -0.324181,0 -0.456393,0.25183 -0.612754,0.512785 -0.802814,1.340215 -1.546038,2.458003 -2.371765,3.36626 -0.284717,0.313363 -0.635026,0.354289 -0.635026,0.354289 h 2.236575 c 0.448512,0 0.655465,-0.109135 1.069601,-0.500355 0.409893,-0.386556 1.262981,-1.5345 2.284746,-3.360561 0.18776,-0.335213 0.464542,-0.369143 0.542829,-0.371901 z m 7.347344,0 c -0.324181,0 -0.455873,0.252135 -0.612237,0.513305 -0.803023,1.340215 -1.546555,2.456966 -2.372282,3.365222 -0.284717,0.313574 -0.635026,0.354807 -0.635026,0.354807 h 2.236575 c 0.448509,0 0.655465,-0.10861 1.069601,-0.499838 0.409891,-0.386554 1.263289,-1.535017 2.285263,-3.361078 0.187551,-0.335213 0.464235,-0.369143 0.54231,-0.371901 l -2.513687,-5.17e-4 z"
       style="fill:#45ded9;fill-opacity:1;stroke-width:0.21216004" />
  </g>
  <g
     id="g1067"
     style="display:inline"
     transform="translate(-24.599991,-5.1290471)">
    <path
       id="path1012"
       transform="matrix(0.26458335,0,0,0.26458335,24.599991,5.1290471)"
       d="m 22.458984,20 c -0.655579,0 -1.229019,0.244927 -1.720703,0.736328 C 20.246595,21.22773 20,21.80183 20,22.457031 v 95.085939 c 0,0.6552 0.246595,1.2293 0.738281,1.7207 0.491684,0.4914 1.065124,0.73633 1.720703,0.73633 h 14.75 c 3.605685,0 6.515935,-0.45066 8.728516,-1.35156 2.212578,-0.9828 3.932899,-2.25249 5.162109,-3.8086 1.229211,-1.638 2.049246,-3.52098 2.458985,-5.65039 0.491683,-2.2113 0.736328,-4.5038 0.736328,-6.8789 V 73.5625 c 0,-1.801801 -0.08219,-3.275275 -0.246094,-4.421875 -0.163895,-1.2285 -0.490738,-2.253262 -0.982422,-3.072266 -0.409736,-0.818998 -0.983176,-1.514591 -1.720703,-2.08789 -0.737527,-0.573304 -1.639763,-1.147402 -2.705078,-1.720703 1.065315,-0.4095 1.967551,-0.860164 2.705078,-1.351563 0.737527,-0.573301 1.310967,-1.26889 1.720703,-2.087891 0.491674,-0.819 0.818517,-1.841809 0.982422,-3.070312 0.163906,-1.2285 0.246094,-2.825412 0.246094,-4.791016 V 37.689453 c 0,-2.375105 -0.244645,-4.626458 -0.736328,-6.755859 C 53.148855,28.722291 52.32882,26.839303 51.099609,25.283203 49.870399,23.645199 48.150078,22.375508 45.9375,21.474609 43.724919,20.491806 40.814669,20 37.208984,20 Z m 49.060547,0 c -1.638946,0 -2.662529,0.777882 -3.072265,2.333984 -0.901423,3.276006 -1.885857,7.28886 -2.951172,12.039063 -1.065315,4.668306 -2.088896,10.687588 -3.072266,18.058594 -0.90142,7.371008 -1.680358,16.339187 -2.335937,26.904297 -0.65558,10.483209 -0.984375,23.219312 -0.984375,38.207032 0,0.6552 0.246597,1.2293 0.738281,1.7207 C 60.333481,119.75507 60.906921,120 61.5625,120 h 9.341797 c 0.655579,0 1.229019,-0.24493 1.720703,-0.73633 0.491684,-0.4914 0.738281,-1.0655 0.738281,-1.7207 v -14.25 h 5.777344 v 14.25 c 0,0.6552 0.246595,1.2293 0.738281,1.7207 C 80.37059,119.75507 80.94403,120 81.599609,120 h 9.464844 c 0.655579,0 1.22902,-0.24493 1.720703,-0.73633 0.491684,-0.4914 0.736328,-1.0655 0.736328,-1.7207 0,-14.90582 -0.326842,-27.641923 -0.982422,-38.207032 C 91.883483,68.770828 91.063446,59.802649 90.080078,52.431641 89.178656,45.060635 88.155075,39.041353 87.007812,34.373047 85.942497,29.622844 84.958063,25.60999 84.056641,22.333984 83.483009,20.777882 82.41833,20 80.861328,20 Z m 30.646489,0 c -0.65558,0 -1.22902,0.244927 -1.72071,0.736328 -0.491681,0.491402 -0.738279,1.065502 -0.738279,1.720703 v 95.085939 c 0,0.6552 0.246598,1.2293 0.738279,1.7207 0.49169,0.4914 1.06513,0.73633 1.72071,0.73633 h 14.75 c 3.60568,0 6.51398,-0.45066 8.72656,-1.35156 2.21258,-0.9828 3.93485,-2.25249 5.16406,-3.8086 1.22921,-1.638 2.0473,-3.52098 2.45703,-5.65039 0.49169,-2.2113 0.73828,-4.5038 0.73828,-6.8789 V 73.5625 c 0,-1.801801 -0.0822,-3.275275 -0.24609,-4.421875 -0.1639,-1.2285 -0.49074,-2.253262 -0.98242,-3.072266 -0.40974,-0.818998 -0.98513,-1.514591 -1.72266,-2.08789 -0.73752,-0.573304 -1.63781,-1.147402 -2.70312,-1.720703 1.06531,-0.4095 1.9656,-0.860164 2.70312,-1.351563 0.73753,-0.573301 1.31292,-1.26889 1.72266,-2.087891 0.49167,-0.819 0.81851,-1.841809 0.98242,-3.070312 0.16388,-1.2285 0.24609,-2.825412 0.24609,-4.791016 V 37.689453 c 0,-2.375105 -0.24659,-4.626458 -0.73828,-6.755859 -0.40973,-2.211303 -1.22782,-4.094291 -2.45703,-5.650391 -1.22921,-1.638004 -2.95148,-2.907695 -5.16406,-3.808594 C 123.43,20.491806 120.5217,20 116.91602,20 Z m 37.875,0 c -0.65558,0 -1.22902,0.244927 -1.72071,0.736328 -0.49168,0.491402 -0.73828,1.065502 -0.73828,1.720703 0.082,9.582306 0.44989,17.935239 1.10547,25.060547 0.73753,7.043409 1.59866,13.227279 2.58203,18.550781 1.06532,5.241608 2.13,9.787414 3.19531,13.636719 1.14727,3.849303 2.1728,7.37035 3.07422,10.564453 v 27.273439 c 0,0.6552 0.24465,1.2293 0.73633,1.7207 0.49168,0.4914 1.06512,0.73633 1.7207,0.73633 h 9.34375 c 0.65558,0 1.22902,-0.24493 1.72071,-0.73633 0.49168,-0.4914 0.73633,-1.0655 0.73633,-1.7207 V 90.269531 c 0.90141,-3.194103 1.92695,-6.71515 3.07421,-10.564453 1.14727,-3.849305 2.21195,-8.395111 3.19532,-13.636719 1.06531,-5.323502 1.96755,-11.507372 2.70507,-18.550781 C 171.50902,40.39227 171.91806,32.039337 172,22.457031 172,21.80183 171.7534,21.22773 171.26172,20.736328 170.77003,20.244927 170.19659,20 169.54102,20 h -9.3418 c -0.65558,0 -1.22902,0.244927 -1.7207,0.736328 -0.49169,0.491402 -0.73829,1.065502 -0.73829,1.720703 0,5.323502 -0.0822,10.15539 -0.24609,14.496094 -0.16389,4.258807 -0.36743,8.150172 -0.61328,11.671875 -0.24584,3.521703 -0.57464,6.756674 -0.98438,9.705078 -0.32779,2.948402 -0.73683,5.732711 -1.22851,8.353516 -0.49168,-2.620805 -0.94183,-5.405114 -1.35156,-8.353516 -0.32779,-2.948404 -0.61549,-6.183375 -0.86133,-9.705078 -0.16389,-3.521703 -0.32828,-7.413068 -0.49219,-11.671875 -0.0819,-4.340704 -0.12305,-9.172592 -0.12305,-14.496094 0,-0.655201 -0.24464,-1.229301 -0.73632,-1.720703 C 150.61183,20.244927 150.03839,20 149.38281,20 Z M 34.259766,32.898438 h 2.949218 c 1.88479,-10e-7 2.828125,1.475426 2.828125,4.423828 v 14.126953 c 0,2.948404 -0.943335,4.423828 -2.828125,4.423828 h -2.949218 z m 79.705074,0 h 2.95118 c 1.88479,-10e-7 2.82617,1.475426 2.82617,4.423828 v 14.126953 c 0,2.948404 -0.94138,4.423828 -2.82617,4.423828 h -2.95118 z M 76.191406,41.375 c 0.737527,5.651104 1.310965,12.695151 1.720703,21.130859 0.491674,8.435709 0.818517,17.731112 0.982422,27.886719 H 73.486328 C 73.732171,80.236971 74.059014,70.941568 74.46875,62.505859 74.878489,54.070151 75.453882,47.026104 76.191406,41.375 Z m -41.93164,27.396484 h 3.318359 c 1.638947,0.245702 2.458984,1.719171 2.458984,4.421875 v 29.484371 c 0,2.94841 -0.943335,4.42383 -2.828125,4.42383 h -2.949218 z m 79.705074,0 h 3.32032 c 1.63894,0.245702 2.45703,1.719171 2.45703,4.421875 v 29.484371 c 0,2.94841 -0.94138,4.42383 -2.82617,4.42383 h -2.95118 z"
       style="font-style:normal;font-variant:normal;font-weight:normal;font-stretch:normal;font-size:32.52286911px;line-height:1.25;font-family:WagnerRoundSCW00-Regular;-inkscape-font-specification:'WagnerRoundSCW00-Regular, Normal';font-variant-ligatures:normal;font-variant-caps:normal;font-variant-numeric:normal;font-feature-settings:normal;text-align:start;letter-spacing:0px;word-spacing:0px;writing-mode:lr-tb;text-anchor:start;fill:#45ded9;fill-opacity:1;stroke:none;stroke-width:0.99999988" />
    <path
       id="path1008"
       transform="matrix(0.26458335,0,0,0.26458335,24.599991,5.1290471)"
       d="m 163.18359,150.55469 c -5.50261,0 -8.22461,2.60324 -8.22461,6.65625 0,4.28967 3.22585,5.70985 7.92969,6.62695 2.51464,0.47334 3.63867,0.97622 3.63867,2.21875 0,1.30169 -1.1242,1.86328 -3.01757,1.86328 -2.24838,0 -4.85296,-0.76925 -6.92383,-1.80469 l -1.92188,4.34961 c 2.78089,1.33128 5.35446,1.98243 9.08203,1.98243 5.65054,0 8.25391,-2.42627 8.25391,-6.80469 0,-4.26009 -2.83929,-5.62087 -6.92188,-6.44922 -3.07672,-0.65085 -4.70507,-1.06521 -4.70507,-2.39648 0,-1.06503 1.03522,-1.62696 2.83984,-1.62696 2.07088,0 4.1728,0.59105 5.88867,1.27149 l 2.12891,-4.25977 c -2.15963,-1.03543 -4.79264,-1.62695 -8.04688,-1.62695 z M 20,151 v 4.84375 h 6.410156 V 172 h 5.28711 v -16.15625 h 6.349609 L 42.890625,151 H 38.046875 24.84375 Z m 25.300781,0 -4.84375,4.84375 L 40.455078,172 H 45.625 v -4.58203 h 3.863281 L 52.625,172 h 6.291016 l -4.332032,-5.91016 c 2.247292,-1.3041 3.50586,-3.56501 3.50586,-6.88281 0,-5.29489 -3.132337,-8.20703 -8.951172,-8.20703 z m 23.53711,0 -9.644532,21 h 5.66211 l 0.791015,-1.99609 h 9.869141 L 76.298828,172 h 5.664063 l -9.644532,-21 z m 15.363281,0 v 21 h 5.287109 v -21 z m 9.123047,0 v 20.94141 h 5.117187 v -11.5293 L 109.9707,172 h 2.64649 V 151.0293 H 107.5 v 11.52929 L 95.941406,151 Z m 22.939451,0 v 21 h 16.24414 v -4.57812 H 121.2832 v -3.60352 h 9.12696 v -4.2832 h -9.12696 v -3.95704 h 10.83985 V 151 Z m 18.95313,0 -0.002,21 h 5.16993 v -4.58203 h 3.86328 L 147.38477,172 h 6.29101 l -4.33203,-5.91016 c 2.24729,-1.3041 3.50586,-3.56501 3.50586,-6.88281 0,-5.29489 -3.13234,-8.20703 -8.95117,-8.20703 z m -89.5918,4.76172 h 3.160156 c 2.776498,0 3.869141,1.28464 3.869141,3.75976 0,1.81719 -1.152458,3.32032 -4.017578,3.32032 H 45.625 Z m 94.75977,0 h 3.16015 c 2.7765,0 3.86914,1.28464 3.86914,3.75976 0,1.81719 -1.15246,3.32032 -4.01758,3.32032 h -3.01171 z m -69.777348,1.72656 c 0,0 2.075753,5.60895 3.277344,8.35547 h -6.589844 z"
       style="font-style:normal;font-variant:normal;font-weight:800;font-stretch:normal;font-size:7.8274188px;line-height:1.25;font-family:'Zona Pro';-inkscape-font-specification:'Zona Pro, Ultra-Bold';font-variant-ligatures:normal;font-variant-caps:normal;font-variant-numeric:normal;font-feature-settings:normal;text-align:start;letter-spacing:0px;word-spacing:0px;writing-mode:lr-tb;text-anchor:start;fill:#45ded9;fill-opacity:1;stroke:none;stroke-width:1" />
  </g>
</svg>
