<?xml version="1.0" encoding="UTF-8" standalone="no"?>
<svg
   xmlns:dc="http://purl.org/dc/elements/1.1/"
   xmlns:cc="http://creativecommons.org/ns#"
   xmlns:rdf="http://www.w3.org/1999/02/22-rdf-syntax-ns#"
   xmlns:svg="http://www.w3.org/2000/svg"
   xmlns="http://www.w3.org/2000/svg"
   xmlns:sodipodi="http://sodipodi.sourceforge.net/DTD/sodipodi-0.dtd"
   xmlns:inkscape="http://www.inkscape.org/namespaces/inkscape"
   height="192"
   width="256"
   version="1.1"
   id="svg14"
   sodipodi:docname="site-featured-image.svg"
   inkscape:version="0.92.5 (2060ec1f9f, 2020-04-08)"
   inkscape:export-filename="D:\Sites\SHOWER-center\static\images\site-feature-image.png"
   inkscape:export-xdpi="450"
   inkscape:export-ydpi="450">
  <metadata
     id="metadata18">
    <rdf:RDF>
      <cc:Work
         rdf:about="">
        <dc:format>image/svg+xml</dc:format>
        <dc:type
           rdf:resource="http://purl.org/dc/dcmitype/StillImage" />
        <dc:title></dc:title>
      </cc:Work>
    </rdf:RDF>
  </metadata>
  <sodipodi:namedview
     pagecolor="#ffffff"
     bordercolor="#666666"
     borderopacity="1"
     objecttolerance="10"
     gridtolerance="10"
     guidetolerance="10"
     inkscape:pageopacity="0"
     inkscape:pageshadow="2"
     inkscape:window-width="1920"
     inkscape:window-height="1018"
     id="namedview16"
     showgrid="false"
     inkscape:zoom="1.5523204"
     inkscape:cx="128"
     inkscape:cy="77.857534"
     inkscape:window-x="-8"
     inkscape:window-y="-8"
     inkscape:window-maximized="1"
     inkscape:current-layer="layer1"
     inkscape:object-paths="false"
     inkscape:snap-page="true" />
  <defs
     id="defs12" />
  <g
     inkscape:groupmode="layer"
     id="layer1"
     inkscape:label="Layer 1">
    <rect
       style="opacity:1;fill:#40bcb7;fill-opacity:1;stroke:none;stroke-width:2;stroke-linecap:round;stroke-linejoin:round;stroke-miterlimit:4;stroke-dasharray:none;stroke-dashoffset:0;stroke-opacity:1;paint-order:markers fill stroke"
       id="rect840"
       width="256"
       height="192"
       x="0"
       y="0" />
    <g
       id="g856"
       transform="matrix(0.94424991,0,0,0.94424991,7.1360115,5.5899596)">
      <path
         style="fill:#ffffff;stroke:none"
         inkscape:connector-curvature="0"
         id="path4"
         d="m 62.257,44.253 c 6.38,0 9.32,-2.736 9.32,-7.68 0,-4.811 -3.205,-6.35 -7.816,-7.283 -3.477,-0.737 -5.314,-1.202 -5.314,-2.706 0,-1.202 1.172,-1.837 3.209,-1.837 2.34,0 4.709,0.665 6.648,1.436 l 2.404,-4.811 C 68.27,20.2 65.296,19.535 61.622,19.535 c -6.214,0 -9.286,2.94 -9.286,7.517 0,4.842 3.64,6.448 8.954,7.483 2.838,0.533 4.108,1.1 4.108,2.506 0,1.47 -1.27,2.101 -3.409,2.101 -2.54,0 -5.48,-0.869 -7.816,-2.037 L 52,42.018 c 3.141,1.5 6.047,2.237 10.258,2.237 z m 11.955,-0.499 h 5.847 V 35.47 h 9.354 v 8.285 H 95.26 V 20 H 89.413 V 30.125 H 80.059 V 20 h -5.847 z m 37.221,0.499 c 7.748,0 12.896,-5.11 12.896,-12.359 0,-7.381 -5.28,-12.397 -12.896,-12.397 -7.688,0 -12.866,5.114 -12.866,12.397 0,7.351 5.314,12.359 12.866,12.359 z m 0,-5.477 c -4.078,0 -6.716,-2.804 -6.716,-6.879 0,-4.18 2.74,-6.917 6.716,-6.917 4.108,0 6.746,2.804 6.746,6.917 0,4.139 -2.706,6.879 -6.746,6.879 z M 153.189,20 148.782,33.1 143.302,20 h -3.043 L 134.779,32.964 130.44,20 h -6.55 l 8.92,23.822 h 2.91 l 6.009,-13.599 6.115,13.599 h 2.94 L 159.637,20 Z m 8.527,23.754 h 18.376 v -5.178 h -12.695 v -4.074 h 10.326 v -4.845 h -10.326 v -4.475 h 12.261 v -5.178 h -17.941 z m 42.285,0 -5.412,-7.381 c 2.872,-1.338 4.475,-3.844 4.475,-7.62 0,-5.647 -3.541,-8.753 -10.122,-8.753 h -9.823 v 23.754 h 5.847 v -6.248 h 3.643 l 4.275,6.248 z M 188.966,25.08 h 3.575 c 3.137,0 4.377,1.368 4.377,4.006 0,1.939 -1.304,3.545 -4.543,3.545 h -3.409 z" />
      <path
         style="fill:#af8dd2;fill-opacity:1;stroke:none"
         inkscape:connector-curvature="0"
         id="path6"
         d="m 58.632,60 c 0,0 1.98,0.231 3.591,2.003 4.675,5.14 8.874,11.46 13.417,19.037 0.881,1.474 1.633,2.903 3.466,2.903 H 93.325 C 92.883,83.924 91.314,83.731 90.256,81.834 84.477,71.509 79.65,65.015 77.33,62.823 74.986,60.62 73.815,60 71.283,60 Z m 83.123,0 c 0,0 1.98,0.231 3.591,2.003 4.671,5.14 8.878,11.46 13.417,19.037 0.884,1.474 1.633,2.903 3.466,2.903 h 14.219 c -0.442,-0.019 -2.011,-0.212 -3.069,-2.109 C 167.596,71.508 162.774,65.015 160.453,62.823 158.11,60.62 156.938,60 154.406,60 Z m -41.575,0.057 c 0,0 1.98,0.231 3.591,2.003 4.675,5.14 8.878,11.46 13.417,19.037 0.881,1.474 1.633,2.903 3.466,2.903 l 14.219,-0.004 c -0.442,-0.015 -2.011,-0.208 -3.069,-2.105 -5.779,-10.326 -10.605,-16.819 -12.926,-19.011 -2.343,-2.203 -3.511,-2.823 -6.047,-2.823 z m 83.123,0 c 0,0 1.98,0.231 3.591,2.003 4.675,5.14 8.878,11.46 13.417,19.037 0.884,1.474 1.633,2.903 3.466,2.903 L 218,83.996 c -0.442,-0.015 -2.011,-0.208 -3.073,-2.105 -5.779,-10.326 -10.605,-16.819 -12.926,-19.011 -2.343,-2.203 -3.511,-2.823 -6.047,-2.823 z" />
      <path
         style="fill:#ffffff;stroke:none"
         inkscape:connector-curvature="0"
         id="path8"
         d="m 58.475,60 c -1.833,0 -2.582,1.424 -3.467,2.898 C 50.465,70.48 46.263,76.8 41.592,81.936 39.981,83.713 38,83.939 38,83.939 h 12.65 c 2.532,0 3.708,-0.611 6.047,-2.826 2.321,-2.185 7.143,-8.679 12.926,-19.008 1.058,-1.897 2.63,-2.085 3.068,-2.1 z m 83.123,0 c -1.833,0 -2.582,1.424 -3.467,2.898 -4.543,7.582 -8.745,13.901 -13.416,19.037 -1.61,1.776 -3.592,2.004 -3.592,2.004 h 12.65 c 2.532,0 3.708,-0.613 6.047,-2.828 2.321,-2.185 7.143,-8.677 12.926,-19.006 1.058,-1.897 2.626,-2.087 3.068,-2.102 z m -41.576,0.057 c -1.833,0 -2.58,1.424 -3.465,2.898 -4.539,7.582 -8.743,13.901 -13.418,19.037 -1.606,1.776 -3.59,2.004 -3.59,2.004 h 12.648 c 2.532,0 3.708,-0.611 6.047,-2.826 2.321,-2.185 7.149,-8.679 12.928,-19.008 1.062,-1.897 2.63,-2.09 3.072,-2.105 z m 83.119,0 c -1.83,0.002 -2.577,1.426 -3.461,2.898 -4.539,7.582 -8.743,13.901 -13.418,19.037 -1.606,1.776 -3.59,2.004 -3.59,2.004 h 12.648 c 2.536,0 3.708,-0.611 6.051,-2.826 2.321,-2.185 7.145,-8.679 12.928,-19.008 1.058,-1.897 2.626,-2.09 3.068,-2.105 h -14.223 z" />
      <path
         style="fill:#ffffff;stroke:none"
         inkscape:connector-curvature="0"
         id="path10"
         d="m 63.711,104 c -2.454,0 -4.462,0.326 -6.023,0.978 -1.506,0.598 -2.677,1.442 -3.514,2.528 -0.836,1.033 -1.421,2.282 -1.756,3.75 C 52.139,112.669 52,114.164 52,115.74 v 44.519 a 40.64,31.404 0 0 0 0.418,4.565 c 0.335,1.413 0.919,2.663 1.756,3.75 0.836,1.033 2.008,1.876 3.514,2.528 1.561,0.598 3.57,0.897 6.023,0.897 2.453,0 4.431,-0.298 5.938,-0.897 1.506,-0.652 2.677,-1.496 3.514,-2.528 0.836,-1.087 1.397,-2.337 1.676,-3.75 a 34,26.273 0 0 0 0.502,-4.565 v -13.29 c 0,-0.435 -0.167,-0.816 -0.502,-1.142 -0.335,-0.326 -0.728,-0.489 -1.174,-0.489 H 67.31 c -0.446,0 -0.835,0.163 -1.17,0.489 a 2.31,1.785 0 0 0 -0.502,1.142 v 13.616 c 0,1.957 -0.641,2.934 -1.924,2.934 -0.781,0 -1.313,-0.244 -1.592,-0.734 -0.279,-0.49 -0.418,-1.221 -0.418,-2.2 v -45.09 c 0,-1.033 0.139,-1.765 0.418,-2.2 0.279,-0.489 0.811,-0.733 1.592,-0.733 1.283,0 1.924,0.977 1.924,2.934 v 9.703 c 0,0.435 0.167,0.816 0.502,1.142 a 1.62,1.62 0 0 0 1.17,0.491 h 6.355 c 0.446,0 0.839,-0.164 1.174,-0.491 a 2.31,1.785 0 0 0 0.502,-1.142 v -9.458 c 0,-1.576 -0.167,-3.071 -0.502,-4.484 -0.279,-1.467 -0.839,-2.717 -1.676,-3.75 -0.836,-1.087 -2.008,-1.931 -3.514,-2.528 -1.506,-0.652 -3.484,-0.978 -5.937,-0.978 z m 128.662,0.813 -10.037,0.002 c -0.446,0 -0.837,0.163 -1.172,0.489 a 2.31,1.785 0 0 0 -0.502,1.144 v 63.107 c 0,0.435 0.167,0.816 0.502,1.142 0.335,0.326 0.726,0.489 1.172,0.489 h 6.357 c 0.446,0 0.835,-0.163 1.17,-0.489 a 2.31,1.785 0 0 0 0.502,-1.142 v -32.207 h 2.26 c 1.115,0.163 1.672,1.141 1.672,2.935 v 29.272 c 0,0.435 0.167,0.816 0.502,1.142 0.335,0.326 0.726,0.489 1.172,0.489 h 6.355 c 0.446,0 0.837,-0.163 1.172,-0.489 A 2.31,1.785 0 0 0 204,169.554 v -29.026 l -0.168,-2.935 c -0.112,-0.815 -0.333,-1.495 -0.668,-2.039 -0.279,-0.543 -0.67,-1.005 -1.172,-1.385 -0.502,-0.38 -1.115,-0.762 -1.84,-1.142 0.725,-0.272 1.338,-0.572 1.84,-0.898 0.502,-0.38 0.893,-0.842 1.172,-1.385 0.335,-0.543 0.556,-1.224 0.668,-2.039 0.112,-0.815 0.168,-1.876 0.168,-3.18 v -8.968 c 0,-1.576 -0.167,-3.072 -0.502,-4.485 -0.279,-1.467 -0.835,-2.717 -1.672,-3.75 -0.836,-1.087 -2.008,-1.93 -3.514,-2.528 -1.506,-0.652 -3.486,-0.979 -5.939,-0.979 z m -111.162,0.002 c -0.446,0 -0.837,0.163 -1.172,0.489 a 2.31,1.785 0 0 0 -0.502,1.144 v 63.107 c 0,0.435 0.167,0.816 0.502,1.142 0.335,0.326 0.726,0.489 1.172,0.489 h 17.648 c 0.446,0 0.837,-0.163 1.172,-0.489 a 2.31,1.785 0 0 0 0.502,-1.142 v -5.299 c 0,-0.435 -0.167,-0.817 -0.502,-1.144 -0.335,-0.327 -0.726,-0.489 -1.172,-0.489 H 89.24 v -26.336 h 9.201 c 0.446,0 0.837,-0.163 1.172,-0.489 a 1.54,1.54 0 0 0 0.5,-1.141 v -5.3 a 1.54,1.54 0 0 0 -0.5,-1.141 c -0.335,-0.326 -0.726,-0.489 -1.172,-0.489 H 89.24 v -14.35 h 9.619 c 0.446,0 0.837,-0.163 1.172,-0.489 a 2.31,1.785 0 0 0 0.502,-1.142 v -5.299 c 0,-0.435 -0.167,-0.816 -0.502,-1.142 -0.335,-0.326 -0.726,-0.489 -1.172,-0.489 z m 24.832,0 c -0.446,0 -0.837,0.163 -1.172,0.489 a 2.31,1.785 0 0 0 -0.502,1.144 v 63.107 c 0,0.435 0.167,0.816 0.502,1.142 0.335,0.326 0.726,0.489 1.172,0.489 h 6.357 c 0.446,0 0.835,-0.163 1.17,-0.489 a 2.31,1.785 0 0 0 0.502,-1.142 v -51.531 a 20.95,16.189 0 0 1 2.258,4.158 34.1,26.35 0 0 1 1.172,4.567 c 0.279,1.576 0.446,3.206 0.502,4.891 l 0.084,5.3 v 32.613 c 0,0.435 0.167,0.816 0.502,1.142 a 1.62,1.62 0 0 0 1.17,0.489 h 6.357 c 0.446,0 0.837,-0.163 1.172,-0.489 a 2.31,1.785 0 0 0 0.502,-1.142 v -63.107 c 0,-0.435 -0.167,-0.816 -0.502,-1.142 -0.335,-0.326 -0.726,-0.489 -1.172,-0.489 h -6.357 c -0.446,0 -0.835,0.163 -1.17,0.489 a 2.31,1.785 0 0 0 -0.502,1.142 v 5.788 l -2.176,-3.424 c -0.669,-0.978 -1.393,-1.901 -2.174,-2.771 -0.725,-0.815 -1.644,-1.224 -2.76,-1.224 z m 26.752,0 c -0.446,0 -0.835,0.163 -1.17,0.489 a 2.31,1.785 0 0 0 -0.502,1.144 v 5.297 c 0,0.435 0.167,0.817 0.502,1.144 a 1.62,1.62 0 0 0 1.17,0.489 h 4.184 v 56.177 c 0,0.435 0.167,0.816 0.502,1.142 a 1.62,1.62 0 0 0 1.17,0.489 h 6.357 c 0.446,0 0.837,-0.163 1.172,-0.489 a 2.31,1.785 0 0 0 0.502,-1.142 v -56.178 h 4.182 c 0.446,0 0.837,-0.163 1.172,-0.489 a 2.31,1.785 0 0 0 0.5,-1.142 v -5.299 a 2.31,1.785 0 0 0 -0.5,-1.142 c -0.335,-0.326 -0.726,-0.489 -1.172,-0.489 z m 24.709,0 c -0.446,0 -0.837,0.163 -1.172,0.489 a 2.31,1.785 0 0 0 -0.502,1.144 v 63.107 c 0,0.435 0.167,0.816 0.502,1.142 0.335,0.326 0.726,0.489 1.172,0.489 h 17.648 c 0.446,0 0.837,-0.163 1.172,-0.489 a 2.31,1.785 0 0 0 0.502,-1.142 v -5.299 c 0,-0.435 -0.167,-0.817 -0.502,-1.144 -0.335,-0.327 -0.726,-0.489 -1.172,-0.489 h -9.619 v -26.336 h 9.201 c 0.446,0 0.837,-0.163 1.172,-0.489 0.335,-0.326 0.502,-0.706 0.502,-1.141 v -5.3 c 0,-0.435 -0.167,-0.815 -0.502,-1.141 -0.335,-0.326 -0.726,-0.489 -1.172,-0.489 h -9.201 v -14.35 h 9.619 c 0.446,0 0.837,-0.163 1.172,-0.489 a 2.31,1.785 0 0 0 0.502,-1.142 v -5.299 c 0,-0.435 -0.167,-0.816 -0.502,-1.142 -0.335,-0.326 -0.726,-0.489 -1.172,-0.489 z m 32.861,8.562 h 2.008 c 1.283,0 1.924,0.978 1.924,2.935 v 9.538 c 0,1.957 -0.641,2.935 -1.924,2.935 h -2.008 z" />
    </g>
  </g>
  <g
     inkscape:groupmode="layer"
     id="layer2"
     inkscape:label="Zonas seguras"
     sodipodi:insensitive="true"
     style="display:none">
    <rect
       style="opacity:1;fill:#ffff00;fill-opacity:0.25098039;stroke:none;stroke-width:2;stroke-linecap:round;stroke-linejoin:round;stroke-miterlimit:4;stroke-dasharray:none;stroke-dashoffset:0;stroke-opacity:1;paint-order:markers fill stroke"
       id="rect848"
       width="192"
       height="192"
       x="32"
       y="0" />
    <rect
       y="24"
       x="1.0658141e-14"
       height="144"
       width="256"
       id="rect850"
       style="opacity:1;fill:#ff0000;fill-opacity:0.25098039;stroke:none;stroke-width:2;stroke-linecap:round;stroke-linejoin:round;stroke-miterlimit:4;stroke-dasharray:none;stroke-dashoffset:0;stroke-opacity:1;paint-order:markers fill stroke" />
  </g>
</svg>
